<?xml version="1.0" encoding="UTF-8" standalone="no"?>
<svg
   xmlns:dc="http://purl.org/dc/elements/1.1/"
   xmlns:cc="http://creativecommons.org/ns#"
   xmlns:rdf="http://www.w3.org/1999/02/22-rdf-syntax-ns#"
   xmlns:svg="http://www.w3.org/2000/svg"
   xmlns="http://www.w3.org/2000/svg"
   xmlns:sodipodi="http://sodipodi.sourceforge.net/DTD/sodipodi-0.dtd"
   xmlns:inkscape="http://www.inkscape.org/namespaces/inkscape"
   viewBox="0 0 24 24"
   id="svg3336"
   version="1.1"
   inkscape:version="0.91 r13725"
   sodipodi:docname="cake.svg">
  <metadata
     id="metadata3348">
    <rdf:RDF>
      <cc:Work
         rdf:about="">
        <dc:format>image/svg+xml</dc:format>
        <dc:type
           rdf:resource="http://purl.org/dc/dcmitype/StillImage" />
      </cc:Work>
    </rdf:RDF>
  </metadata>
  <defs
     id="defs3346" />
  <sodipodi:namedview
     pagecolor="#ffffff"
     bordercolor="#666666"
     borderopacity="1"
     objecttolerance="10"
     gridtolerance="10"
     guidetolerance="10"
     inkscape:pageopacity="0"
     inkscape:pageshadow="2"
     inkscape:window-width="1920"
     inkscape:window-height="1017"
     id="namedview3344"
     showgrid="false"
     inkscape:zoom="35.333333"
     inkscape:cx="6.4906469"
     inkscape:cy="14.337255"
     inkscape:window-x="1912"
     inkscape:window-y="-8"
     inkscape:window-maximized="1"
     inkscape:current-layer="svg3336"
     showguides="true"
     inkscape:guide-bbox="true">
    <sodipodi:guide
       position="12,18.792453"
       orientation="1,0"
       id="guide4689" />
    <sodipodi:guide
       position="1.7264151,12"
       orientation="0,1"
       id="guide4691" />
    <sodipodi:guide
       position="4.9245283,12.028302"
       orientation="0,1"
       id="guide4144" />
    <sodipodi:guide
       position="1.3018868,12"
       orientation="0,1"
       id="guide4696" />
    <sodipodi:guide
       position="4.3018868,18.14151"
       orientation="0,1"
       id="guide4698" />
    <sodipodi:guide
       position="2.5754717,6.1132076"
       orientation="0,1"
       id="guide4700" />
  </sodipodi:namedview>
  <path
     d="m 19.971698,5.9056594 -3,0 0,-0.0094 -14.4245282,0 c -1.1,0 -1.64054761,0.56041 -1.63207546,1.660377 l 0.0566038,7.3490156 1.99999996,0 c 0,1.66 1.34,3 3,3 1.66,0 3,-1.34 3,-3 l 5.9999999,0 c 0,1.66 1.34,3 3,3 1.66,0 3,-1.34 3,-3 l 2,0 0,-4.9999996 z M 5.9716981,16.405652 c -0.83,0 -1.5,-0.67 -1.5,-1.5 0,-0.83 0.67,-1.5 1.5,-1.5 0.83,0 1.5,0.67 1.5,1.5 0,0.83 -0.67,1.5 -1.5,1.5 z m 13.4999999,-8.9999926 1.96,2.499993 -4.46,0 0,-2.499993 z m -1.5,8.9999926 c -0.83,0 -1.5,-0.67 -1.5,-1.5 0,-0.83 0.67,-1.5 1.5,-1.5 0.83,0 1.5,0.67 1.5,1.5 0,0.83 -0.67,1.5 -1.5,1.5 z"
     id="path4152"
     inkscape:connector-curvature="0"
     sodipodi:nodetypes="cccssccsccsccccssssscccccsssss" />
  <path
     d="M 8.7914767,10.525357 9.9543215,9.3625143 7.069809,6.4821142 c -0.6410028,0.641003 -0.6410028,1.680578 0,2.3256881 L 8.7914767,10.525357 Z M 11.577376,9.7816298 c 0.628676,0.2917382 1.512109,0.08629 2.165439,-0.567039 0.784817,-0.7848142 0.936849,-1.9106776 0.332828,-2.5146996 -0.599913,-0.599913 -1.725776,-0.451989 -2.514703,0.332828 -0.65333,0.65333 -0.85878,1.5367619 -0.567041,2.1654367 l -4.0103788,4.0103721 0.5793678,0.579368 2.831097,-2.822877 2.826987,2.826986 0.579368,-0.579368 -2.826986,-2.826986 0.604022,-0.6040212 z"
     id="path4154"
     inkscape:connector-curvature="0"
     style="fill:#ff0000;fill-opacity:1" />
</svg>
