<?xml version="1.0" encoding="UTF-8" standalone="no"?>
<svg
   xmlns:dc="http://purl.org/dc/elements/1.1/"
   xmlns:cc="http://creativecommons.org/ns#"
   xmlns:rdf="http://www.w3.org/1999/02/22-rdf-syntax-ns#"
   xmlns:svg="http://www.w3.org/2000/svg"
   xmlns="http://www.w3.org/2000/svg"
   xmlns:sodipodi="http://sodipodi.sourceforge.net/DTD/sodipodi-0.dtd"
   xmlns:inkscape="http://www.inkscape.org/namespaces/inkscape"
   viewBox="0 0 200 75.785455"
   height="75.785454"
   width="200"
   xml:space="preserve"
   version="1.1"
   id="svg2"
   inkscape:version="0.91 r13725"
   sodipodi:docname="diners.svg"><sodipodi:namedview
     pagecolor="#ffffff"
     bordercolor="#666666"
     borderopacity="1"
     objecttolerance="10"
     gridtolerance="10"
     guidetolerance="10"
     inkscape:pageopacity="0"
     inkscape:pageshadow="2"
     inkscape:window-width="1920"
     inkscape:window-height="1017"
     id="namedview19"
     showgrid="false"
     inkscape:zoom="1.44"
     inkscape:cx="42.950789"
     inkscape:cy="37.892727"
     inkscape:window-x="1912"
     inkscape:window-y="-8"
     inkscape:window-maximized="1"
     inkscape:current-layer="svg2" /><metadata
     id="metadata8"><rdf:RDF><cc:Work
         rdf:about=""><dc:format>image/svg+xml</dc:format><dc:type
           rdf:resource="http://purl.org/dc/dcmitype/StillImage" /><dc:title></dc:title></cc:Work></rdf:RDF></metadata><defs
     id="defs6" /><g
     transform="matrix(0.10198869,0,0,0.10198869,1.1106066,10.867337)"
     id="__x0023_Layer_x0020_1"><path
       style="fill:#0079be"
       inkscape:connector-curvature="0"
       d="M 372.69,504 C 510.44,504.659 636.17,391.659 636.17,254.19 636.17,103.86 510.44,-0.05 372.69,0 L 254.14,0 C 114.74,-0.05 0,103.891 0,254.19 0,391.689 114.74,504.66 254.14,504 l 118.55,0 z"
       id="path4149" /><path
       style="fill:#ffffff"
       inkscape:connector-curvature="0"
       d="M 254.701,20.83 C 127.321,20.87 24.101,124.12 24.071,251.551 24.101,378.96 127.32,482.2 254.701,482.24 382.111,482.2 485.352,378.96 485.37,251.551 485.351,124.12 382.111,20.87 254.701,20.83 Z m -146.19,230.721 0,0 c 0.12,-62.27 39.01,-115.37 93.85,-136.471 l 0,272.91 c -54.84,-21.089 -93.731,-74.16 -93.85,-136.439 z m 198.51,136.499 0,0 0,-272.979 c 54.86,21.05 93.81,74.18 93.91,136.48 -0.1,62.319 -39.05,115.409 -93.91,136.499 z"
       id="path4151" /><path
       style="fill:#211e1f"
       inkscape:connector-curvature="0"
       d="m 716.953,108.431 c 0,-23.841 -12.431,-22.271 -24.351,-22.53 l 0,-6.89 c 10.33,0.51 20.92,0.51 31.271,0.51 11.13,0 26.24,-0.51 45.859,-0.51 68.62,0 105.99,45.84 105.99,92.779 0,26.25 -15.359,92.24 -109.18,92.24 -13.51,0 -25.98,-0.521 -38.43,-0.521 -11.92,0 -23.59,0.261 -35.511,0.521 l 0,-6.88 c 15.891,-1.601 23.591,-2.13 24.351,-20.16 l 0,-128.559 10e-4,0 z m 25.98,124.329 0,0 c 0,20.41 14.59,22.79 27.57,22.79 57.26,0 76.06,-43.21 76.06,-82.71 0,-49.55 -31.81,-85.33 -82.949,-85.33 -10.88,0 -15.88,0.78 -20.68,1.061 l -10e-4,144.189 0,0 z"
       id="path4153" /><path
       style="fill:#211e1f"
       inkscape:connector-curvature="0"
       d="m 885.022,257.151 5.02,0 c 7.41,0 12.721,0 12.721,-8.771 l 0,-71.819 c 0,-11.649 -3.971,-13.27 -13.78,-18.54 l 0,-4.25 c 12.45,-3.74 27.311,-8.74 28.35,-9.54 1.87,-1.06 3.45,-1.34 4.78,-1.34 1.311,0 1.86,1.6 1.86,3.73 l 0,101.759 c 0,8.771 5.83,8.771 13.25,8.771 l 4.5,0 0,6.89 c -9.021,0 -18.3,-0.529 -27.82,-0.529 -9.54,0 -19.09,0.26 -28.88,0.529 l 0,-6.89 -10e-4,0 z m 28.35,-155.071 0,0 c -6.899,0 -12.979,-6.359 -12.979,-13.25 0,-6.64 6.36,-12.75 12.979,-12.75 6.87,0 12.99,5.591 12.99,12.75 0,7.16 -5.849,13.25 -12.99,13.25 z"
       id="path4155" /><path
       style="fill:#211e1f"
       inkscape:connector-curvature="0"
       d="m 966.901,178.141 c 0,-9.8 -2.931,-12.44 -15.36,-17.48 l 0,-5.029 c 11.39,-3.71 22.241,-7.16 34.969,-12.74 0.791,0 1.57,0.54 1.57,2.65 l 0,17.239 c 15.131,-10.859 28.121,-19.89 45.9,-19.89 22.5,0 30.449,16.439 30.449,37.109 l 0,68.381 c 0,8.77 5.83,8.77 13.26,8.77 l 4.771,0 0,6.89 c -9.301,0 -18.57,-0.529 -28.09,-0.529 -9.551,0 -19.102,0.26 -28.631,0.529 l 0,-6.89 4.76,0 c 7.439,0 12.711,0 12.711,-8.77 l 0,-68.631 c 0,-15.13 -9.23,-22.54 -24.361,-22.54 -8.469,0 -21.99,6.891 -30.77,12.73 l 0,78.439 c 0,8.771 5.859,8.771 13.291,8.771 l 4.76,0 0,6.89 c -9.271,0 -18.561,-0.53 -28.1,-0.53 -9.531,0 -19.09,0.261 -28.621,0.53 l 0,-6.89 4.78,0 c 7.42,0 12.71,0 12.71,-8.771 l 0,-70.238 0.002,0 z"
       id="path4157" /><path
       style="fill:#211e1f"
       inkscape:connector-curvature="0"
       d="m 1102.61,190.88 c -0.551,2.391 -0.551,6.36 0,15.38 1.561,25.17 17.77,45.841 38.939,45.841 14.59,0 26.01,-7.95 35.801,-17.75 l 3.699,3.72 c -12.199,16.16 -27.301,29.939 -49.02,29.939 -42.15,0 -50.631,-40.83 -50.631,-57.779 0,-51.961 34.98,-67.341 53.52,-67.341 21.48,0 44.551,13.511 44.801,41.61 0,1.61 0,3.18 -0.25,4.79 l -2.4,1.59 -74.459,0 0,0 z m 46.92,-8.489 0,0 c 6.609,0 7.391,-3.45 7.391,-6.62 0,-13.521 -8.211,-24.391 -23.061,-24.391 -16.15,0 -27.281,11.91 -30.461,31.011 l 46.131,0 0,0 z"
       id="path4159" /><path
       style="fill:#211e1f"
       inkscape:connector-curvature="0"
       d="m 1185.821,257.151 7.16,0 c 7.398,0 12.699,0 12.699,-8.771 l 0,-74.47 c 0,-8.21 -9.789,-9.81 -13.779,-11.93 l 0,-3.96 c 19.35,-8.23 29.959,-15.13 32.369,-15.13 1.57,0 2.35,0.8 2.35,3.46 l 0,23.85 0.561,0 c 6.609,-10.33 17.76,-27.31 33.91,-27.31 6.629,0 15.1,4.5 15.1,14.05 0,7.16 -5.02,13.54 -12.439,13.54 -8.25,0 -8.25,-6.38 -17.51,-6.38 -4.51,0 -19.34,6.1 -19.34,22.01 l 0,62.27 c 0,8.77 5.289,8.77 12.719,8.77 l 14.83,0 0,6.891 c -14.58,-0.271 -25.67,-0.53 -37.09,-0.53 -10.859,0 -22,0.26 -31.539,0.53 l 0,-6.89 -10e-4,0 z"
       id="path4161" /><path
       style="fill:#211e1f"
       inkscape:connector-curvature="0"
       d="m 1287.86,227.18 c 3.451,17.5 14.041,32.351 33.4,32.351 15.6,0 21.439,-9.54 21.439,-18.82 0,-31.28 -57.76,-21.21 -57.76,-63.88 0,-14.85 11.939,-33.94 41.08,-33.94 8.471,0 19.859,2.4 30.189,7.71 l 1.881,27.011 -6.109,0 c -2.641,-16.681 -11.91,-26.23 -28.891,-26.23 -10.6,0 -20.66,6.101 -20.66,17.49 0,31.04 61.48,21.47 61.48,63.08 0,17.49 -14.051,36.06 -45.59,36.06 -10.6,0 -23.051,-3.71 -32.32,-9 l -2.92,-30.489 4.781,-1.343 0,0 z"
       id="path4163" /><path
       style="fill:#211e1f"
       inkscape:connector-curvature="0"
       d="m 1603.221,126.99 -6.611,0 c -5.039,-31 -27.039,-43.47 -56.709,-43.47 -30.5,0 -74.76,20.399 -74.76,84.01 0,53.58 38.189,91.999 78.99,91.999 26.229,0 47.979,-18.02 53.279,-45.859 l 6.08,1.58 -6.08,38.699 c -11.131,6.91 -41.08,14.061 -58.59,14.061 -62,0 -101.211,-40.029 -101.211,-99.67 0,-54.34 48.49,-93.32 100.43,-93.32 21.461,0 42.131,6.92 62.541,14.08 l 2.641,37.89 0,0 z"
       id="path4165" /><path
       style="fill:#211e1f"
       inkscape:connector-curvature="0"
       d="m 1612.782,257.151 5.02,0 c 7.43,0 12.75,0 12.75,-8.771 l 0,-147.619 c 0,-17.24 -3.98,-17.771 -14.061,-20.681 l 0,-4.24 c 10.6,-3.439 21.73,-8.22 27.301,-11.409 2.889,-1.58 5.029,-2.921 5.809,-2.921 1.621,0 2.15,1.601 2.15,3.73 l 0,183.14 c 0,8.771 5.82,8.771 13.25,8.771 l 4.471,0 0,6.89 c -8.971,0 -18.25,-0.53 -27.801,-0.53 -9.529,0 -19.07,0.261 -28.891,0.53 l 0,-6.89 0,0 z"
       id="path4167" /><path
       style="fill:#211e1f"
       inkscape:connector-curvature="0"
       d="m 1782.948,249.441 c 0,4.79 2.9,5.05 7.4,5.05 3.189,0 7.15,-0.26 10.609,-0.26 l 0,5.58 c -11.408,1.05 -33.139,6.62 -38.18,8.2 l -1.33,-0.801 0,-21.449 c -15.879,12.979 -28.09,22.25 -46.92,22.25 -14.309,0 -29.148,-9.271 -29.148,-31.521 l 0,-67.88 c 0,-6.89 -1.051,-13.521 -15.871,-14.84 l 0,-5.04 c 9.551,-0.26 30.711,-1.851 34.17,-1.851 2.941,0 2.941,1.851 2.941,7.681 l 0,68.369 c 0,7.971 0,30.76 23.039,30.76 9.01,0 20.93,-6.89 32.051,-16.14 l 0,-71.34 c 0,-5.28 -12.711,-8.19 -22.23,-10.851 l 0,-4.77 c 23.82,-1.6 38.689,-3.71 41.32,-3.71 2.148,0 2.148,1.85 2.148,4.78 l 0,97.783 0,0 z"
       id="path4169" /><path
       style="fill:#211e1f"
       inkscape:connector-curvature="0"
       d="m 1835.682,161.981 c 10.59,-9.011 24.898,-19.09 39.488,-19.09 30.75,0 49.281,26.8 49.281,55.669 0,34.721 -25.43,69.45 -63.352,69.45 -19.6,0 -29.93,-6.37 -36.83,-9.271 l -7.939,6.08 -5.549,-2.899 c 2.35,-15.64 3.699,-31.02 3.699,-47.18 l 0,-113.98 c 0,-17.239 -4,-17.77 -14.061,-20.68 l 0,-4.24 c 10.631,-3.439 21.73,-8.22 27.301,-11.41 2.92,-1.58 5.029,-2.92 5.85,-2.92 1.58,0 2.109,1.601 2.109,3.73 l 0,96.74 0,0 z m 0,72.09 0,0 c 0,10.08 9.529,27.06 27.289,27.06 28.359,0 40.279,-27.85 40.279,-51.449 0,-28.62 -21.709,-52.47 -42.389,-52.47 -9.83,0 -18.031,6.37 -25.18,12.479 l 0,64.38 10e-4,0 z"
       id="path4171" /><path
       style="fill:#211e1f"
       inkscape:connector-curvature="0"
       d="m 692.299,418.15 2.03,0 c 5.18,0 10.66,-0.699 10.66,-8.21 l 0,-75.56 c 0,-7.521 -5.48,-8.23 -10.66,-8.23 l -2.03,0 0,-4.33 c 5.63,0 14.28,0.57 21.37,0.57 7.2,0 15.84,-0.57 22.62,-0.57 l 0,4.33 -2.03,0 c -5.17,0 -10.659,0.71 -10.659,8.23 l 0,75.56 c 0,7.511 5.489,8.21 10.659,8.21 l 2.03,0 0,4.351 c -6.92,0 -15.59,-0.57 -22.78,-0.57 -7.069,0 -15.58,0.57 -21.21,0.57 l 0,-4.351 0,0 z"
       id="path4173" /><path
       style="fill:#211e1f"
       inkscape:connector-curvature="0"
       d="m 736.293,423.111 c -6.97,0 -15.609,-0.58 -22.79,-0.58 -7.05,0 -15.529,0.58 -21.2,0.58 l -0.619,0 0,-0.62 0,-4.33 0,-0.63 0.619,0 2.021,0 c 5.229,-0.12 9.99,-0.54 10.04,-7.59 l 0,-75.561 c -0.05,-7.05 -4.81,-7.521 -10.04,-7.62 l -2.64,0 0,-0.609 0,-4.971 0.619,0 c 5.671,0 14.311,0.57 21.36,0.57 7.18,0 15.811,-0.57 22.63,-0.57 l 0.641,0 0,0.66 0,4.92 -0.641,0 -2.02,0 c -5.23,0.1 -10.021,0.57 -10.05,7.62 l 0,75.561 c 0.029,7.05 4.819,7.47 10.05,7.59 l 2.66,0 0,0.63 0,4.95 -0.64,0 0,0 z m -0.62,-1.231 0,0 0,-3.08 -1.399,0 c -5.15,0 -11.28,-0.89 -11.311,-8.859 l 0,-75.561 c 0.03,-7.97 6.16,-8.87 11.311,-8.87 l 1.399,0 0,-3.06 c -6.66,0 -15.01,0.56 -22.01,0.56 -6.85,0 -15.14,-0.52 -20.72,-0.56 l 0,3.06 1.38,0 c 5.14,0 11.29,0.9 11.29,8.87 l 0,75.561 c 0,7.97 -6.15,8.859 -11.29,8.859 l -1.38,0 0,3.08 c 5.58,-0.06 13.729,-0.58 20.56,-0.58 7.02,0 15.37,0.54 22.17,0.58 l 0,0 z"
       id="path4175" /><path
       style="fill:#211e1f"
       inkscape:connector-curvature="0"
       d="m 835.363,394.07 0.289,-0.28 0,-54.08 c 0,-11.84 -8.229,-13.56 -12.549,-13.56 l -3.181,0 0,-4.331 c 6.79,0 13.42,0.57 20.19,0.57 5.909,0 11.85,-0.57 17.75,-0.57 l 0,4.331 -2.16,0 c -6.07,0 -12.85,1.149 -12.85,18.31 l 0,65.64 c 0,5.041 0.149,10.08 0.859,14.551 l -5.489,0 -74.25,-82.79 0,59.43 c 0,12.55 2.43,16.86 13.55,16.86 l 2.439,0 0,4.35 c -6.189,0 -12.38,-0.57 -18.59,-0.57 -6.47,0 -13.109,0.57 -19.609,0.57 l 0,-4.35 2.02,0 c 9.95,0 12.971,-6.761 12.971,-18.29 l 0,-60.75 c 0,-8.07 -6.65,-12.96 -13.11,-12.96 l -1.88,0 0,-4.33 c 5.479,0 11.1,0.569 16.57,0.569 4.329,0 8.52,-0.569 12.839,-0.569 l 64.191,72.249 0,0 z"
       id="path4177" /><path
       style="fill:#211e1f"
       inkscape:connector-curvature="0"
       d="m 843.708,425.281 -5.949,-0.221 -73.181,-81.569 0,57.8 c 0.17,12.54 2.08,16.101 12.94,16.24 l 3.09,0 0,0.62 0,4.96 -0.64,0 c -6.24,0 -12.45,-0.58 -18.601,-0.58 -6.46,0 -13.08,0.58 -19.62,0.58 l -0.63,0 0,-0.62 0,-4.96 0.63,0 2.03,0 c 9.53,-0.05 12.25,-6.17 12.36,-17.67 l 0,-60.74 c -0.021,-7.68 -6.32,-12.34 -12.5,-12.36 l -2.521,0 0,-0.64 0,-4.92 0.63,0 c 5.511,0 11.16,0.55 16.57,0.55 4.29,0 8.471,-0.55 13.33,-0.34 l 63.38,71.351 0,-53.04 c -0.08,-11.48 -7.729,-12.86 -11.93,-12.961 l -3.82,0 0,-0.64 0,-4.92 0.64,0 c 6.811,0 13.45,0.55 20.19,0.55 5.87,0 11.78,-0.55 17.74,-0.55 l 0.63,0 0,0.62 0,4.939 -0.63,0 -2.15,0 c -5.95,0.171 -12.06,0.69 -12.229,17.7 l 0,65.63 c 0,5.04 0.149,10.08 0.85,14.45 l 0.14,0.74 -0.749,0 0,0.001 z m -5.479,-1.271 0,0 4.77,0 c -0.649,-4.33 -0.76,-9.13 -0.76,-13.92 l 0,-65.63 c 0,-17.31 7.25,-18.949 13.46,-18.949 l 1.52,0 0,-3.061 c -5.68,0.04 -11.38,0.56 -17.109,0.56 -6.6,0 -13.02,-0.52 -19.55,-0.56 l -0.01,3.061 2.55,0 c 4.43,0 13.18,1.979 13.18,14.21 l -0.2,54.499 -0.29,0.301 -0.489,0.45 -64.131,-72.521 c -4.279,0 -8.46,0.56 -12.85,0.56 -5.29,0 -10.7,-0.52 -15.93,-0.56 l -0.03,3.06 1.28,0 c 6.77,0 13.72,5.17 13.72,13.61 l 0,60.74 c 0,11.529 -3.21,18.909 -13.58,18.949 l -1.39,-0.04 0,3.11 c 6.25,-0.06 12.67,-0.58 18.979,-0.58 6.021,0 12.011,0.521 17.97,0.58 l 0,-3.07 -1.819,0 c -11.351,-0.04 -14.17,-4.979 -14.181,-17.52 l 0,-61.05 74.89,83.771 0,0 z m -2.871,-29.95 0,0 0.46,-0.42 -0.46,0.42 z m -0.33,-0.279 0,0 0,-0.05 -0.12,-0.101 0.12,0.151 z"
       id="path4179" /><path
       style="fill:#211e1f"
       inkscape:connector-curvature="0"
       d="m 879.449,329.02 c -10.83,0 -11.24,2.601 -13.4,13.12 l -4.33,0 c 0.57,-4.03 1.29,-8.06 1.73,-12.26 0.579,-4.04 0.859,-8.061 0.859,-12.24 l 3.47,0 c 1.16,4.33 4.761,4.18 8.671,4.18 l 74.39,0 c 3.899,0 7.5,-0.14 7.8,-4.479 l 3.439,0.58 c -0.56,3.899 -1.14,7.79 -1.58,11.689 -0.26,3.891 -0.26,7.79 -0.26,11.67 l -4.34,1.61 c -0.3,-5.33 -1.02,-13.87 -10.67,-13.87 l -23.65,0 0,76.74 c 0,11.12 5.051,12.391 11.95,12.391 l 2.75,0 0,4.35 c -5.62,0 -15.729,-0.57 -23.5,-0.57 -8.649,0 -18.76,0.57 -24.39,0.57 l 0,-4.35 2.75,0 c 7.95,0 11.97,-0.711 11.97,-12.091 l 0,-77.04 -23.659,0 0,0 z"
       id="path4181" /><path
       style="fill:#211e1f"
       inkscape:connector-curvature="0"
       d="m 936.301,423.111 c -5.681,0 -15.771,-0.58 -23.521,-0.58 -8.64,0 -18.729,0.58 -24.39,0.58 l -0.6,0 0,-0.61 0,-4.97 0.6,0 2.75,0 c 7.95,-0.19 11.149,-0.29 11.33,-11.471 l 0,-76.409 -23.02,0 0,-0.631 0,-0.64 24.271,0 0,77.68 c 0,11.57 -4.66,12.74 -12.58,12.75 l -2.12,0 0,3.04 c 5.69,-0.029 15.39,-0.55 23.76,-0.55 7.521,0 17.16,0.521 22.86,0.55 l 0,-3.04 -2.11,0 c -6.97,-0.01 -12.58,-1.72 -12.58,-13.05 l 0,-77.38 24.28,0 c 9.68,0.04 10.94,8.27 11.26,13.62 l 3.11,-1.15 c 0,-3.76 0.02,-7.53 0.28,-11.33 0.42,-3.71 0.95,-7.39 1.49,-11.07 l -2.201,-0.37 c -0.669,4.2 -4.72,4.41 -8.35,4.37 l -74.37,0 -0.75,0 c -3.39,0 -7.1,-0.16 -8.39,-4.189 l -2.38,0 c -0.021,3.99 -0.301,7.86 -0.851,11.699 -0.42,3.961 -1.08,7.771 -1.62,11.581 l 3.091,0 c 1.899,-10.051 3.14,-13.311 13.899,-13.16 l 0,0.64 0,0.63 c -10.66,0.19 -10.439,1.99 -12.79,12.65 l -0.109,0.49 -0.5,0 -5.05,0 0.08,-0.75 c 0.58,-4.04 1.311,-8.061 1.74,-12.261 0.6,-4 0.88,-8 0.88,-12.14 l 0,-0.63 0.61,0 3.96,0 0.1,0.45 c 0.99,3.64 3.66,3.66 7.33,3.72 l 0.75,0 74.37,0 c 4.021,-0.06 6.94,-0.12 7.19,-3.891 l 0.06,-0.68 0.65,0.14 4.07,0.641 -0.091,0.63 c -0.58,3.86 -1.149,7.76 -1.569,11.63 -0.29,3.84 -0.29,7.74 -0.29,11.63 l 0,0.45 -0.4,0.16 -5.11,1.859 -0.039,-0.84 c -0.381,-5.42 -0.951,-13.26 -10.061,-13.26 l -23.02,0 0,76.11 c 0.13,10.88 4.449,11.63 11.319,11.77 l 3.38,0 0,0.62 0,4.96 -0.608,0.002 0,0 z"
       id="path4183" /><path
       style="fill:#211e1f"
       inkscape:connector-curvature="0"
       d="m 966.691,418.15 2.03,0 c 5.181,0 10.669,-0.699 10.669,-8.21 l 0,-75.56 c 0,-7.521 -5.488,-8.23 -10.669,-8.23 l -2.03,0 0,-4.33 c 8.78,0 23.801,0.57 35.889,0.57 12.141,0 27.111,-0.57 36.91,-0.57 -0.238,6.19 -0.109,15.73 0.32,22.061 l -4.35,1.159 c -0.689,-9.369 -2.42,-16.859 -17.57,-16.859 l -20.029,0 0,37.77 17.141,0 c 8.648,0 10.539,-4.89 11.389,-12.699 l 4.32,0 c -0.279,5.649 -0.43,11.27 -0.43,16.89 0,5.49 0.15,10.96 0.43,16.44 l -4.32,0.859 c -0.85,-8.649 -1.289,-14.27 -11.25,-14.27 l -17.279,0 0,33.59 c 0,9.39 8.33,9.39 17.57,9.39 17.309,0 24.939,-1.17 29.27,-17.59 l 4.041,0.99 c -1.891,7.66 -3.611,15.29 -4.891,22.95 -9.24,0 -25.83,-0.57 -38.791,-0.57 -13,0 -30.148,0.57 -38.37,0.57 l 0,-4.351 0,0 z"
       id="path4185" /><path
       style="fill:#211e1f"
       inkscape:connector-curvature="0"
       d="m 1043.838,423.111 c -9.26,0 -25.84,-0.591 -38.789,-0.591 -12.99,0 -30.131,0.591 -38.361,0.591 l -0.609,0 0,-0.61 0,-4.35 0,-0.62 0.609,0 2.021,0 c 5.229,-0.08 9.969,-0.54 10.04,-7.59 l 0,-75.561 c -0.07,-7.04 -4.811,-7.51 -10.04,-7.62 l -2.63,0 0,-0.609 0,-4.95 0.609,0 c 8.8,0 23.8,0.55 35.89,0.55 12.129,0 27.09,-0.55 36.91,-0.55 l 0.65,0 -0.031,0.64 c -0.1,2.17 -0.139,4.729 -0.139,7.45 0,4.989 0.139,10.439 0.43,14.55 l 0.02,0.52 -0.48,0.141 -5.07,1.32 -0.029,-0.74 c -0.85,-9.36 -2.1,-16.15 -16.949,-16.29 l -19.43,0 -0.021,36.51 16.561,0 c 8.301,-0.08 9.789,-4.33 10.77,-12.1 l 0.051,-0.57 0.559,0 4.971,0 -0.01,0.649 c -0.279,5.62 -0.461,11.24 -0.461,16.86 0,5.46 0.182,10.93 0.461,16.42 l 0.01,0.511 -0.52,0.119 -5.01,1 -0.051,-0.68 c -0.99,-8.8 -1.061,-13.62 -10.641,-13.729 l -16.67,-0.011 0,32.99 c 0.012,8.76 7.57,8.71 16.971,8.76 17.359,-0.1 24.32,-0.939 28.67,-17.14 l 0.141,-0.58 0.609,0.11 4.621,1.189 -0.141,0.601 c -1.859,7.64 -3.59,15.26 -4.881,22.899 l -0.119,0.511 -0.492,0 0,0 z m -0.529,-1.26 0,0 c 1.25,-7.271 2.898,-14.57 4.67,-21.831 l -2.85,-0.72 c -4.32,16.141 -12.682,17.58 -29.701,17.471 -9.08,0 -18.18,0 -18.221,-10.011 l 0,-34.22 17.922,0 c 10.068,-0.11 11.1,5.97 11.809,14.18 l 3.121,-0.649 c -0.281,-5.311 -0.41,-10.641 -0.41,-15.931 0,-5.43 0.129,-10.829 0.41,-16.26 l -3.121,0 c -0.799,7.51 -3.15,12.79 -11.939,12.69 l -17.791,0 0,-39.04 20.682,0 c 15,-0.101 17.488,7.64 18.129,16.71 l 3.111,-0.84 c -0.25,-4.07 -0.422,-9.29 -0.422,-14.11 0,-2.47 0.061,-4.8 0.141,-6.84 -9.799,0.04 -24.4,0.56 -36.27,0.56 -11.85,0 -26.439,-0.52 -35.27,-0.56 l 0,3.06 1.399,0 c 5.14,0 11.281,0.9 11.3,8.87 l 0,75.561 c -0.02,7.95 -6.16,8.83 -11.3,8.87 l -1.399,0 0,3.04 c 8.411,-0.011 25.071,-0.55 37.739,-0.55 12.72,0 28.96,0.539 38.261,0.55 l 0,0 z"
       id="path4187" /><path
       style="fill:#211e1f"
       inkscape:connector-curvature="0"
       d="m 1068.202,337.1 c 0,-10.52 -5.76,-10.95 -10.25,-10.95 l -2.59,0 0,-4.34 c 4.619,0 13.549,0.58 22.35,0.58 8.65,0 15.58,-0.58 23.211,-0.58 18.158,0 34.33,4.91 34.33,25.41 0,12.95 -8.65,20.89 -20.041,25.38 l 24.65,36.9 c 4.039,6.1 6.91,7.81 13.99,8.649 l 0,4.351 c -4.76,0 -9.381,-0.57 -14.131,-0.57 -4.469,0 -9.1,0.57 -13.551,0.57 -11.1,-14.57 -20.639,-30.15 -30.01,-46.75 l -9.488,0 0,30.88 c 0,11.12 5.17,11.52 11.799,11.52 l 2.6,0 0,4.351 c -8.24,0 -16.568,-0.57 -24.799,-0.57 -6.93,0 -13.711,0.57 -20.91,0.57 l 0,-4.351 2.59,0 c 5.359,0 10.25,-2.42 10.25,-7.77 l 0,-73.28 0,0 z m 18.468,33.46 0,0 7.041,0 c 14.43,0 22.199,-5.479 22.199,-22.5 0,-12.82 -8.209,-21.05 -21.059,-21.05 -4.33,0 -6.17,0.45 -8.182,0.58 l 0,42.97 z"
       id="path4189" /><path
       style="fill:#211e1f"
       inkscape:connector-curvature="0"
       d="m 1153.852,423.111 c -4.83,0 -9.42,-0.58 -14.16,-0.58 -4.4,0 -9,0.58 -14.029,0.34 -11.061,-14.51 -20.541,-30 -29.861,-46.48 l -8.52,0 0,30.221 c 0.15,10.85 4.51,10.76 11.18,10.92 l 3.23,0 0,0.62 0,4.96 -0.641,0 c -8.24,0 -16.609,-0.58 -24.799,-0.58 -6.891,0 -13.65,0.58 -20.891,0.58 l -0.631,0 0,-0.62 0,-4.96 0.631,0 2.59,0 c 5.199,-0.03 9.58,-2.29 9.6,-7.15 l 0,-73.279 c -0.109,-10.24 -5.119,-10.181 -9.6,-10.33 l -3.221,0 0,-0.62 0,-4.97 0.631,0 c 4.67,0 13.57,0.569 22.35,0.569 8.609,0 15.541,-0.569 23.221,-0.569 18.17,0.04 34.91,5.06 34.959,26 0,13.03 -8.609,21.159 -19.74,25.7 l 24.23,36.279 c 4.031,5.98 6.541,7.471 13.561,8.37 l 0.529,0.08 0,0.54 0,4.96 -0.619,0 0,-0.001 z m -67.199,-47.981 0,0 9.859,0 0.17,0.32 c 9.4,16.57 18.869,32.13 29.49,46.43 4.4,0 9.029,-0.59 13.52,-0.59 4.609,0 9.049,0.5 13.539,0.57 l 0,-3.16 c -6.77,-0.84 -9.939,-2.86 -13.879,-8.85 l -25.09,-37.551 0.709,-0.29 c 11.281,-4.439 19.631,-12.149 19.641,-24.83 -0.01,-20.01 -15.551,-24.649 -33.68,-24.729 -7.611,0 -14.531,0.57 -23.221,0.57 -8.469,0 -17.02,-0.53 -21.74,-0.57 l 0,3.06 1.98,0 c 4.48,0.011 10.859,0.75 10.859,11.591 l 0,73.279 c 0,5.79 -5.43,8.43 -10.859,8.44 l -1.98,0 0,3.039 c 6.941,-0.02 13.51,-0.569 20.281,-0.569 8.068,0 16.199,0.55 24.18,0.569 l 0,-3.039 -1.971,0 c -6.58,-0.011 -12.439,-0.83 -12.439,-12.21 l 0,-31.48 0.629,0 0,0 z m 0,-3.96 0,0 -0.631,0 0,-44.16 0.549,-0.05 c 1.971,-0.149 3.922,-0.56 8.281,-0.56 13.141,0 21.68,8.54 21.699,21.689 -0.039,17.22 -8.299,23.07 -22.84,23.08 l -7.058,0 0,0.001 z m 7.058,-1.239 0,0 c 14.279,-0.121 21.461,-5.08 21.611,-21.841 -0.08,-12.6 -7.91,-20.42 -20.471,-20.47 -3.9,0 -5.73,0.36 -7.57,0.521 l 0,41.79 6.43,0 0,0 z"
       id="path4191" /><path
       style="fill:#211e1f"
       inkscape:connector-curvature="0"
       d="m 1251.762,394.07 0.26,-0.28 0,-54.08 c 0,-11.84 -8.209,-13.56 -12.529,-13.56 l -3.16,0 0,-4.331 c 6.77,0 13.391,0.57 20.18,0.57 5.92,0 11.811,-0.57 17.76,-0.57 l 0,4.331 -2.17,0 c -6.059,0 -12.84,1.149 -12.84,18.31 l 0,65.64 c 0,5.041 0.141,10.08 0.85,14.551 l -5.469,0 -74.26,-82.79 0,59.43 c 0,12.55 2.449,16.86 13.549,16.86 l 2.451,0 0,4.35 c -6.191,0 -12.4,-0.57 -18.59,-0.57 -6.512,0 -13.141,0.57 -19.621,0.57 l 0,-4.35 2,0 c 9.961,0 12.99,-6.761 12.99,-18.29 l 0,-60.75 c 0,-8.07 -6.631,-12.96 -13.109,-12.96 l -1.881,0 0,-4.33 c 5.461,0 11.111,0.569 16.58,0.569 4.301,0 8.5,-0.569 12.83,-0.569 l 64.179,72.249 0,0 z"
       id="path4193" /><path
       style="fill:#211e1f"
       inkscape:connector-curvature="0"
       d="m 1260.118,425.27 -5.939,-0.2 -73.189,-81.579 0,57.79 c 0.17,12.55 2.07,16.109 12.949,16.25 l 3.051,0 0,0.62 0,4.96 -0.631,0 c -6.238,0 -12.42,-0.591 -18.6,-0.591 -6.439,0 -13.1,0.591 -19.59,0.591 l -0.65,0 0,-0.61 0,-4.97 0.65,0 2,0 c 9.52,-0.04 12.25,-6.17 12.34,-17.71 l 0,-60.71 c -0.01,-7.681 -6.299,-12.34 -12.459,-12.351 l -2.531,0 0,-0.609 0,-4.97 0.65,0 c 5.5,0 11.141,0.569 16.58,0.569 4.24,0 8.42,-0.569 13.26,-0.37 l 63.391,71.381 0,-53.061 c -0.041,-11.46 -7.721,-12.88 -11.91,-12.939 l -3.811,0 0,-0.61 0,-4.97 0.631,0 c 6.82,0 13.459,0.569 20.199,0.569 5.881,0 11.791,-0.569 17.73,-0.569 l 0.629,0 0,0.65 0,4.93 -0.629,0 -2.141,0 c -5.949,0.16 -12.08,0.689 -12.23,17.7 l 0,65.629 c 0,5.04 0.131,10.04 0.861,14.48 l 0.08,0.7 -0.691,0 0,0 z m -5.479,-1.26 0,0 4.74,0 c -0.631,-4.33 -0.771,-9.13 -0.771,-13.92 l 0,-65.63 c 0.01,-17.311 7.311,-18.91 13.49,-18.96 l 1.51,0 0,-3.05 c -5.66,0.04 -11.369,0.56 -17.1,0.56 -6.619,0 -13.051,-0.52 -19.58,-0.56 l 0,3.05 2.561,0 c 4.439,0.05 13.18,1.99 13.18,14.2 l -0.199,54.52 -0.281,0.3 -0.439,0.46 -64.18,-72.529 c -4.281,0 -8.461,0.56 -12.82,0.56 -5.34,0 -10.73,-0.52 -15.98,-0.56 l 0,3.05 1.279,0 c 6.771,0.05 13.721,5.16 13.721,13.61 l 0,60.709 c 0,11.58 -3.26,18.95 -13.6,18.99 l -1.4,-0.01 0,3.05 c 6.23,-0.03 12.66,-0.55 18.99,-0.55 6.051,0 12.041,0.52 18,0.55 l 0,-3.04 -1.82,0 c -11.359,-0.01 -14.199,-4.979 -14.219,-17.53 l 0,-61.02 74.918,83.75 0,0 z m -2.881,-29.95 0,0 0.439,-0.41 -0.439,0.41 z m -0.359,-0.27 0,0 0,-0.051 -0.111,-0.109 0.111,0.16 z"
       id="path4195" /><path
       style="fill:#211e1f"
       inkscape:connector-curvature="0"
       d="m 1297.461,401.87 c -1.459,4.89 -3.199,8.67 -3.199,11.24 0,4.34 6.07,5.04 10.811,5.04 l 1.609,0 0,4.35 c -5.779,-0.311 -11.67,-0.57 -17.48,-0.57 -5.189,0 -10.35,0.261 -15.549,0.57 l 0,-4.35 0.869,0 c 5.619,0 10.391,-3.311 12.52,-9.38 l 23.1,-66.181 c 1.861,-5.34 4.48,-12.55 5.352,-17.899 4.59,-1.57 10.369,-4.45 13.1,-6.19 0.449,-0.149 0.699,-0.3 1.15,-0.3 0.43,0 0.709,0 1.029,0.45 0.42,1.14 0.84,2.45 1.301,3.6 l 26.529,75.44 c 1.73,5.04 3.439,10.37 5.311,14.71 1.74,4.04 4.779,5.75 9.549,5.75 l 0.85,0 0,4.35 c -6.488,-0.31 -12.988,-0.569 -19.889,-0.569 -7.07,0 -14.301,0.26 -21.65,0.569 l 0,-4.35 1.6,0 c 3.301,0 8.941,-0.56 8.941,-4.17 0,-1.87 -1.301,-5.76 -2.91,-10.39 l -5.611,-16.73 -32.729,0 -4.604,15.01 0,0 z m 21.041,-63.9 0,0 -0.291,0 -13.41,40.82 26.951,0 -13.25,-40.82 z"
       id="path4197" /><path
       style="fill:#211e1f"
       inkscape:connector-curvature="0"
       d="m 1374.272,423.111 c -6.49,-0.29 -12.98,-0.591 -19.85,-0.591 -7.07,0 -14.25,0.301 -21.631,0.591 l -0.65,0.04 0,-0.65 0,-4.99 0.631,0 1.59,0 c 3.34,0 8.299,-0.76 8.299,-3.529 0.041,-1.641 -1.26,-5.601 -2.85,-10.19 l -5.49,-16.31 -31.809,0 -4.48,14.569 c -1.461,4.92 -3.189,8.73 -3.18,11.08 0.049,3.521 5.439,4.38 10.219,4.38 l 2.221,0 0,0.65 0,4.99 -0.65,-0.04 c -5.77,-0.29 -11.66,-0.591 -17.41,-0.591 -5.17,0 -10.369,0.301 -15.539,0.591 l -0.67,0.04 0,-0.65 0,-4.99 0.629,0 0.861,0 c 5.369,-0.02 9.85,-3.069 11.93,-8.939 l 23.09,-66.19 c 1.891,-5.35 4.49,-12.54 5.74,-18.29 4.52,-1.53 10.309,-4.43 13.09,-6.19 0.4,-0.13 0.801,-0.33 1.391,-0.33 0.35,-0.01 1.129,0.08 1.59,0.841 0.41,1.189 0.859,2.47 1.299,3.64 l 26.561,75.431 c 1.701,5.06 3.42,10.39 5.301,14.649 1.67,3.851 4.32,5.36 8.959,5.38 l 1.471,0 0,0.65 0,4.99 -0.663,-0.042 0,0 z m -40.871,-1.29 0,0 c 7.141,-0.25 14.131,-0.53 21.021,-0.53 6.699,0 12.969,0.28 19.238,0.53 l 0,-3.011 -0.199,0 c -4.939,0.03 -8.35,-1.909 -10.121,-6.159 -1.879,-4.38 -3.639,-9.73 -5.328,-14.78 l -26.551,-75.42 c -0.439,-1.15 -0.859,-2.46 -1.24,-3.48 -0.119,-0.14 -0.09,-0.14 -0.209,-0.14 l -0.262,0 c -0.299,0 -0.469,0.09 -0.84,0.19 -2.779,1.81 -8.568,4.64 -12.84,5.77 -0.889,5.46 -3.479,12.66 -5.359,18 l -23.08,66.2 c -2.199,6.26 -7.25,9.83 -13.119,9.819 l -0.23,0 0,3.011 c 4.939,-0.25 9.939,-0.53 14.949,-0.53 5.57,0 11.27,0.28 16.77,0.53 l 0,-3.011 -0.93,0 c -4.689,-0.06 -11.25,-0.59 -11.43,-5.68 0.01,-2.88 1.781,-6.569 3.189,-11.439 l 0.631,0.189 -0.631,-0.21 4.75,-15.42 33.621,0 5.789,17.141 c 1.621,4.63 2.93,8.47 2.93,10.59 -0.199,4.43 -6.289,4.74 -9.559,4.83 l -0.961,0 0,3.01 10e-4,0 z m -29.479,-42.411 0,0 13.809,-42.07 0.48,0 0.301,0 0,0.63 -0.16,0.03 0.16,-0.03 0,-0.63 0.43,0 13.689,42.07 -28.709,0 z m 1.729,-1.25 0,0 25.24,0 -12.551,-38.65 -12.689,38.65 z m 12.23,-40.009 0,0 0.33,-0.11 -0.33,0.11 z"
       id="path4199" /><path
       style="fill:#211e1f"
       inkscape:connector-curvature="0"
       d="m 1380.653,329.02 c -10.82,0 -11.25,2.601 -13.422,13.12 l -4.33,0 c 0.57,-4.03 1.301,-8.06 1.752,-12.26 0.578,-4.04 0.84,-8.061 0.84,-12.24 l 3.479,0 c 1.15,4.33 4.771,4.18 8.641,4.18 l 74.43,0 c 3.871,0 7.471,-0.14 7.771,-4.479 l 3.449,0.58 c -0.551,3.899 -1.119,7.79 -1.561,11.689 -0.309,3.891 -0.309,7.79 -0.309,11.67 l -4.32,1.61 c -0.271,-5.33 -0.99,-13.87 -10.66,-13.87 l -23.65,0 0,76.74 c 0,11.12 5.061,12.391 11.961,12.391 l 2.738,0 0,4.35 c -5.619,0 -15.699,-0.57 -23.5,-0.57 -8.639,0 -18.75,0.57 -24.369,0.57 l 0,-4.35 2.73,0 c 7.949,0 11.99,-0.711 11.99,-12.091 l 0,-77.04 -23.66,0 0,0 z"
       id="path4201" /><path
       style="fill:#211e1f"
       inkscape:connector-curvature="0"
       d="m 1437.463,423.111 c -5.66,0 -15.76,-0.58 -23.5,-0.58 -8.621,0 -18.721,0.58 -24.371,0.58 l -0.639,0 0,-0.61 0,-4.97 0.639,0 2.73,0 c 7.949,-0.19 11.141,-0.29 11.34,-11.471 l -0.02,-76.409 -22.99,0 0,-0.631 0,-0.64 24.26,0 0,77.68 c 0,11.57 -4.67,12.71 -12.59,12.74 l -2.119,0 0,3.08 c 5.709,-0.061 15.389,-0.58 23.76,-0.58 7.529,0 17.17,0.521 22.869,0.58 l 0,-3.08 -2.129,0 c -6.932,-0.03 -12.551,-1.7 -12.57,-13.04 l 0,-77.38 24.279,0 c 9.68,0.04 10.949,8.27 11.221,13.62 l 3.15,-1.15 c 0,-3.76 0.01,-7.53 0.289,-11.31 0.4,-3.71 0.939,-7.41 1.471,-11.091 l -2.18,-0.37 c -0.66,4.2 -4.73,4.431 -8.32,4.37 l -74.432,0 -0.729,0 c -3.4,0.04 -7.08,-0.16 -8.391,-4.21 l -2.359,0 c -0.041,4 -0.311,7.881 -0.881,11.721 -0.379,3.97 -1.09,7.79 -1.629,11.58 l 3.09,0 c 1.91,-10.051 3.16,-13.311 13.939,-13.16 l 0,0.64 0,0.63 c -10.689,0.181 -10.449,1.99 -12.811,12.65 l -0.109,0.49 -0.5,0 -5.061,0 0.09,-0.721 c 0.6,-4.069 1.32,-8.09 1.74,-12.26 0.59,-4.03 0.871,-8.03 0.871,-12.17 l 0,-0.63 0.619,0 3.939,0 0.121,0.45 c 1.01,3.64 3.639,3.66 7.33,3.72 l 0.729,0.02 74.432,0 c 3.98,-0.079 6.889,-0.14 7.139,-3.899 l 0.041,-0.69 0.68,0.141 4.09,0.64 -0.109,0.63 c -0.59,3.86 -1.141,7.76 -1.58,11.63 -0.291,3.84 -0.291,7.75 -0.291,11.63 l 0,0.45 -0.408,0.16 -5.111,1.86 -0.029,-0.841 c -0.371,-5.419 -0.941,-13.26 -10.051,-13.26 l -23.029,0 0,76.11 c 0.15,10.88 4.459,11.63 11.32,11.77 l 3.379,0 0,0.62 0,4.96 -0.619,10e-4 0,0 z"
       id="path4203" /><path
       style="fill:#211e1f"
       inkscape:connector-curvature="0"
       d="m 1468.588,418.15 2.021,0 c 5.209,0 10.658,-0.699 10.658,-8.21 l 0,-75.56 c 0,-7.521 -5.449,-8.23 -10.658,-8.23 l -2.021,0 0,-4.33 c 5.631,0 14.271,0.57 21.32,0.57 7.24,0 15.891,-0.57 22.67,-0.57 l 0,4.33 -2.02,0 c -5.189,0 -10.689,0.71 -10.689,8.23 l 0,75.56 c 0,7.511 5.5,8.21 10.689,8.21 l 2.02,0 0,4.351 c -6.93,0 -15.59,-0.57 -22.779,-0.57 -7.08,0 -15.58,0.57 -21.211,0.57 l 0,-4.351 z"
       id="path4205" /><path
       style="fill:#211e1f"
       inkscape:connector-curvature="0"
       d="m 1512.583,423.111 c -6.969,0 -15.6,-0.591 -22.789,-0.591 -7.051,0 -15.57,0.591 -21.201,0.591 l -0.629,0 0,-0.61 0,-4.35 0,-0.62 0.629,0 2.021,0 c 5.209,-0.08 9.99,-0.53 10.01,-7.59 l 0,-75.561 c -0.02,-7.04 -4.801,-7.521 -10.01,-7.62 l -2.65,0 0,-0.609 0,-4.95 0.629,0 c 5.631,0 14.291,0.55 21.32,0.55 7.191,0 15.84,-0.55 22.67,-0.55 l 0.611,0 0,0.619 0,4.94 -0.611,0 -2.02,0 c -5.27,0.1 -10,0.58 -10.07,7.62 l 0,75.561 c 0.07,7.06 4.801,7.51 10.07,7.59 l 2.631,0 0,0.62 0,4.96 -0.611,0 0,0 z m -0.649,-1.26 0,0 0,-3.051 -1.371,0 c -5.17,0 -11.289,-0.909 -11.289,-8.859 l 0,-75.561 c 0,-7.97 6.119,-8.87 11.289,-8.87 l 1.371,0 0,-3.06 c -6.66,0.04 -14.99,0.56 -22.021,0.56 -6.83,0 -15.1,-0.52 -20.689,-0.56 l 0,3.06 1.391,0 c 5.129,0 11.27,0.9 11.289,8.87 l 0,75.561 c -0.02,7.949 -6.16,8.859 -11.289,8.859 l -1.391,0 0,3.051 c 5.561,-0.061 13.721,-0.551 20.57,-0.551 6.99,0 15.34,0.521 22.139,0.551 l 10e-4,0 z"
       id="path4207" /><path
       style="fill:#211e1f"
       inkscape:connector-curvature="0"
       d="m 1570.088,319.66 c 30.74,0 55.24,19.06 55.24,49.77 0,33.181 -23.791,55.23 -54.49,55.23 -30.6,0 -53.939,-20.771 -53.939,-51.78 0,-29.99 23.199,-53.22 53.189,-53.22 l 0,0 z m 2.18,98.65 0,0 c 27.98,0 32.85,-24.68 32.85,-45.71 0,-21.08 -11.359,-46.6 -35.309,-46.6 -25.24,0 -32.73,22.5 -32.73,41.81 0,25.82 11.82,50.5 35.189,50.5 l 0,0 z"
       id="path4209" /><path
       style="fill:#211e1f"
       inkscape:connector-curvature="0"
       d="m 1516.252,372.88 c 0.061,-30.34 23.541,-53.81 53.83,-53.85 l 0,0.63 0,0.609 c -29.639,0 -52.58,22.931 -52.609,52.61 0.07,30.66 23.08,51.12 53.361,51.13 30.398,-0.01 53.85,-21.75 53.898,-54.609 -0.029,-30.32 -24.16,-49.091 -54.648,-49.131 l 0,-0.609 0,-0.63 c 30.979,0.02 55.809,19.27 55.869,50.37 -0.029,33.529 -24.131,55.81 -55.119,55.869 -30.842,-0.06 -54.521,-21.04 -54.58,-52.39 l 0,0 z m 20.202,-5.07 0,0 c 0.039,-19.399 7.619,-42.46 33.359,-42.46 24.48,0.061 35.91,26.061 35.949,47.25 -0.039,21.03 -4.988,46.311 -33.488,46.311 l 0,-0.6 0,-0.621 c 27.42,-0.039 32.17,-24.06 32.238,-45.09 0,-20.909 -11.26,-45.939 -34.699,-45.97 -24.74,0.03 -32.061,21.97 -32.109,41.18 0.02,25.69 11.73,49.82 34.57,49.88 l 0,0.621 0,0.6 c -23.941,-0.031 -35.781,-25.13 -35.82,-51.101 l 0,0 z"
       id="path4211" /><path
       style="fill:#211e1f"
       inkscape:connector-curvature="0"
       d="m 1722.508,394.07 0.291,-0.28 0,-54.08 c 0,-11.84 -8.24,-13.56 -12.57,-13.56 l -3.121,0 0,-4.331 c 6.76,0 13.391,0.57 20.15,0.57 5.93,0 11.84,-0.57 17.76,-0.57 l 0,4.331 -2.18,0 c -6.041,0 -12.83,1.149 -12.83,18.31 l 0,65.64 c 0,5.041 0.141,10.08 0.871,14.551 l -5.471,0 -74.281,-82.79 0,59.43 c 0,12.55 2.441,16.86 13.541,16.86 l 2.469,0 0,4.35 c -6.209,0 -12.398,-0.57 -18.6,-0.57 -6.49,0 -13.139,0.57 -19.629,0.57 l 0,-4.35 2.029,0 c 9.971,0 12.961,-6.761 12.961,-18.29 l 0,-60.75 c 0,-8.07 -6.602,-12.96 -13.111,-12.96 l -1.879,0 0,-4.33 c 5.479,0 11.109,0.569 16.58,0.569 4.33,0 8.5,-0.569 12.84,-0.569 l 64.18,72.249 0,0 z"
       id="path4213" /><path
       style="fill:#211e1f"
       inkscape:connector-curvature="0"
       d="m 1730.889,425.27 -5.969,-0.21 -73.17,-81.57 0,57.801 c 0.158,12.54 2.068,16.09 12.898,16.22 l 3.121,0 0,0.65 0,4.95 -0.631,0 c -6.25,0 -12.439,-0.58 -18.6,-0.58 -6.471,0 -13.09,0.58 -19.641,0.58 l -0.6,0 0,-0.62 0,-4.98 0.6,0 2.041,0 c 9.51,-0.029 12.24,-6.149 12.359,-17.65 l 0,-60.75 c -0.02,-7.68 -6.311,-12.34 -12.51,-12.35 l -2.49,0 0,-0.61 0,-4.95 0.6,0 c 5.531,0 11.15,0.551 16.59,0.551 4.281,0 8.441,-0.551 13.32,-0.34 l 63.361,71.35 0,-53.04 c -0.041,-11.479 -7.721,-12.86 -11.941,-12.96 l -3.789,0 0,-0.609 0,-4.95 0.65,0 c 6.789,0 13.439,0.55 20.148,0.55 5.92,0 11.801,-0.55 17.781,-0.55 l 0.619,0 0,0.619 0,4.94 -0.619,0 -2.182,0 c -5.93,0.17 -12.068,0.71 -12.189,17.7 l 0,65.63 c 0,5.04 0.109,10.069 0.811,14.479 l 0.119,0.7 -0.687,0 0,-0.001 z m -5.478,-1.26 0,0 4.719,0 c -0.629,-4.33 -0.74,-9.13 -0.74,-13.92 l 0,-65.63 c 0,-17.34 7.271,-18.91 13.451,-18.96 l 1.559,0 0,-3.05 c -5.689,0.04 -11.389,0.56 -17.158,0.56 -6.561,0 -13.012,-0.52 -19.541,-0.56 l 0,3.05 2.529,0 c 4.471,0.05 13.17,2.021 13.17,14.22 l -0.158,54.5 -0.271,0.301 -0.459,0.459 -64.18,-72.529 c -4.25,0 -8.461,0.56 -12.84,0.56 -5.311,0 -10.721,-0.52 -15.971,-0.56 l 0,3.05 1.27,0 c 6.771,0.05 13.74,5.16 13.74,13.61 l 0,60.75 c 0,11.53 -3.219,18.91 -13.59,18.95 l -1.42,-0.011 0,3.051 c 6.26,-0.03 12.68,-0.55 19.02,-0.55 6.01,0 11.98,0.52 17.971,0.55 l 0,-3.04 -1.861,0 c -11.318,-0.011 -14.148,-4.98 -14.148,-17.521 l 0,-61.05 74.908,83.77 0,0 z m -2.901,-29.95 0,0 0.459,-0.41 -0.459,0.41 z m -0.34,-0.27 0,0 0,-0.051 -0.121,-0.109 0.121,0.16 z"
       id="path4215" /><path
       style="fill:#211e1f"
       inkscape:connector-curvature="0"
       d="m 1768.192,401.87 c -1.41,4.89 -3.16,8.67 -3.16,11.24 0,4.34 6.07,5.04 10.801,5.04 l 1.609,0 0,4.35 c -5.77,-0.311 -11.689,-0.57 -17.459,-0.57 -5.211,0 -10.381,0.261 -15.551,0.57 l 0,-4.35 0.82,0 c 5.65,0 10.43,-3.311 12.561,-9.38 l 23.1,-66.181 c 1.859,-5.34 4.469,-12.55 5.311,-17.899 4.619,-1.57 10.379,-4.45 13.148,-6.19 0.41,-0.149 0.701,-0.3 1.141,-0.3 0.43,0 0.699,0 0.99,0.45 0.439,1.14 0.891,2.45 1.32,3.6 l 26.52,75.44 c 1.73,5.04 3.451,10.37 5.35,14.71 1.73,4.04 4.77,5.75 9.51,5.75 l 0.881,0 0,4.35 c -6.5,-0.31 -12.99,-0.569 -19.92,-0.569 -7.051,0 -14.27,0.26 -21.631,0.569 l 0,-4.35 1.602,0 c 3.289,0 8.949,-0.56 8.949,-4.17 0,-1.87 -1.311,-5.76 -2.92,-10.39 l -5.6,-16.73 -32.74,0 -4.632,15.01 0,0 z m 21.08,-63.9 0,0 -0.289,0 -13.43,40.82 26.988,0 -13.269,-40.82 z"
       id="path4217" /><path
       style="fill:#211e1f"
       inkscape:connector-curvature="0"
       d="m 1845.022,423.111 c -6.49,-0.26 -12.969,-0.58 -19.859,-0.58 -7.031,0 -14.25,0.32 -21.611,0.58 l -0.639,0.04 0,-0.66 0,-4.96 0.619,0 1.57,0 c 3.359,0 8.33,-0.78 8.34,-3.55 0.029,-1.641 -1.27,-5.57 -2.879,-10.19 l -5.48,-16.31 -31.83,0 -4.461,14.569 c -1.439,4.94 -3.16,8.73 -3.129,11.061 0,3.54 5.398,4.42 10.17,4.42 l 2.199,0 0,0.62 0,5 -0.639,-0.04 c -5.771,-0.26 -11.672,-0.58 -17.41,-0.58 -5.17,0 -10.352,0.32 -15.551,0.58 l -0.631,0.04 0,-0.66 0,-4.96 0.631,0 0.82,0 c 5.379,-0.021 9.879,-3.11 11.98,-8.96 l 23.08,-66.19 c 1.84,-5.35 4.439,-12.54 5.719,-18.27 4.531,-1.57 10.32,-4.45 13.121,-6.211 0.379,-0.13 0.77,-0.3 1.359,-0.3 0.381,-0.04 1.119,0.05 1.58,0.84 0.43,1.131 0.85,2.44 1.33,3.61 l 26.52,75.431 c 1.721,5.06 3.451,10.39 5.32,14.68 1.689,3.82 4.32,5.33 8.92,5.37 l 1.5,0 0,0.62 0,5 -0.659,-0.04 0,0 z m -40.869,-1.271 0,0 c 7.129,-0.27 14.15,-0.55 21.01,-0.55 6.709,0 13,0.28 19.279,0.53 l -0.02,-3.011 -0.24,0 c -4.881,0.011 -8.289,-1.909 -10.08,-6.159 -1.9,-4.38 -3.619,-9.73 -5.34,-14.761 l -26.541,-75.439 c -0.43,-1.15 -0.869,-2.46 -1.219,-3.44 -0.121,-0.18 -0.109,-0.18 -0.221,-0.18 l -0.27,0 c -0.299,0 -0.461,0.1 -0.811,0.2 -2.809,1.77 -8.59,4.649 -12.859,5.76 -0.891,5.46 -3.51,12.65 -5.369,18 l -23.09,66.2 c -2.191,6.26 -7.23,9.83 -13.131,9.819 l -0.211,0 0,3.011 c 4.961,-0.25 9.92,-0.53 14.941,-0.53 5.59,0 11.279,0.28 16.83,0.53 l 0,-3.011 -0.98,0 c -4.689,-0.06 -11.27,-0.569 -11.439,-5.699 0.029,-2.86 1.818,-6.53 3.209,-11.42 l 0.59,0.189 -0.59,-0.21 4.75,-15.42 33.631,0 5.779,17.14 c 1.59,4.641 2.9,8.471 2.9,10.591 -0.211,4.43 -6.26,4.739 -9.561,4.829 l -0.949,0 0,3.031 0,0 z m -29.461,-42.439 0,0 13.83,-42.061 0.439,0 0.311,0 0,0.63 -0.15,0.03 0.15,-0.03 0,-0.63 0.451,0 13.629,42.061 -28.66,0 z m 1.73,-1.241 0,0 25.221,0 -12.541,-38.63 -12.68,38.63 0,0 z m 12.25,-40.009 0,0 0.289,-0.11 -0.289,0.11 z"
       id="path4219" /><path
       style="fill:#211e1f"
       inkscape:connector-curvature="0"
       d="m 1881.42,408.36 c 0,5.771 4,7.49 8.621,8.08 5.91,0.44 12.4,0.44 19.061,-0.29 6.039,-0.729 11.24,-4.189 13.818,-7.79 2.301,-3.18 3.602,-7.22 4.471,-10.39 l 4.18,0 c -1.58,8.22 -3.6,16.32 -5.34,24.53 -12.66,0 -25.379,-0.57 -38.051,-0.57 -12.709,0 -25.379,0.57 -38.068,0.57 l 0,-4.351 1.979,0 c 5.221,0 10.861,-0.699 10.861,-9.649 l 0,-74.12 c 0,-7.521 -5.641,-8.23 -10.861,-8.23 l -1.979,0 0,-4.33 c 7.619,0 15.129,0.57 22.76,0.57 7.379,0 14.58,-0.57 21.939,-0.57 l 0,4.33 -3.631,0 c -5.459,0 -9.76,0.16 -9.76,7.78 l 0,74.43 0,0 z"
       id="path4221" /><path
       style="fill:#211e1f"
       inkscape:connector-curvature="0"
       d="m 1926.231,423.111 c -12.709,0 -25.398,-0.58 -38.049,-0.58 -12.701,0 -25.391,0.58 -38.1,0.58 l -0.611,0 0,-0.62 0,-4.96 0.611,0 2.01,0 c 5.23,-0.12 10.17,-0.48 10.23,-9.03 l 0,-74.149 c -0.061,-7.01 -4.971,-7.49 -10.23,-7.591 l -2.621,0 0,-0.609 0,-4.95 0.611,0 c 7.67,0 15.18,0.55 22.799,0.55 7.32,0 14.521,-0.55 21.93,-0.55 l 0.592,0 0,0.62 0,4.939 -0.592,0 -3.619,0 c -5.59,0.16 -9.07,-0.1 -9.18,7.171 l 0,74.43 c 0.039,5.37 3.561,6.82 8.061,7.45 2.549,0.18 5.219,0.29 8,0.29 3.529,0 7.199,-0.17 10.92,-0.57 5.879,-0.689 10.939,-4.08 13.42,-7.52 2.219,-3.08 3.5,-7.04 4.359,-10.19 l 0.131,-0.479 0.479,0 4.951,0 -0.131,0.76 c -1.629,8.25 -3.609,16.31 -5.359,24.52 l -0.119,0.49 -0.49,0 0,0 z m -0.52,-1.26 0,0 c 1.67,-7.82 3.561,-15.471 5.111,-23.271 l -2.961,0 c -0.9,3.14 -2.18,7.01 -4.449,10.16 -2.691,3.74 -8.031,7.26 -14.281,8.03 -3.779,0.39 -7.52,0.59 -11.059,0.59 -2.791,0 -5.5,-0.13 -8.111,-0.311 -4.689,-0.52 -9.24,-2.52 -9.219,-8.689 l 0,-74.43 c 0,-8.01 5.068,-8.42 10.449,-8.42 l 2.98,0 0,-3.06 c -7.109,0.04 -14.109,0.569 -21.291,0.569 -7.469,0 -14.77,-0.529 -22.17,-0.569 l 0,3.06 1.381,0 c 5.15,0 11.449,0.9 11.449,8.84 l 0,74.15 c 0,9.33 -6.27,10.3 -11.449,10.3 l -1.381,0 0,3.05 c 12.471,-0.01 24.941,-0.55 37.471,-0.55 12.53,0 25.052,0.54 37.53,0.551 l 0,0 z"
       id="path4223" /><path
       style="fill:#211e1f"
       inkscape:connector-curvature="0"
       d="m 1929.821,317.72 c 8.689,0 15.18,6.68 15.18,15.24 0,8.52 -6.49,15.14 -15.18,15.14 -8.691,0 -15.191,-6.62 -15.191,-15.14 0,-8.559 6.499,-15.24 15.191,-15.24 z m 0,27.55 0,0 c 6.789,0 12.01,-5.8 12.01,-12.31 0,-6.55 -5.141,-12.4 -12.01,-12.4 -6.83,0 -12.051,5.851 -12.051,12.4 0,6.51 5.221,12.31 12.051,12.31 z m -7.561,-4.31 0,0 0,-0.75 c 1.869,-0.26 2.209,-0.2 2.209,-1.36 l 0,-11.24 c 0,-1.579 -0.17,-2.119 -2.139,-2.04 l 0,-0.77 7.77,0 c 2.68,0 5.129,1.27 5.129,4.03 0,2.26 -1.5,3.93 -3.59,4.58 l 2.49,3.479 c 1.17,1.58 2.48,3.061 3.35,3.58 l 0,0.49 -2.959,0 c -1.42,0 -2.66,-2.99 -5.461,-7 l -1.68,0 0,5.05 c 0,1 0.35,0.94 2.221,1.2 l 0,0.75 -7.34,0 0,10e-4 z m 5.119,-8 0,0 1.791,0 c 1.959,0 2.879,-1.49 2.879,-3.88 0,-2.42 -1.42,-3.271 -2.979,-3.271 l -1.691,0 0,7.151 z"
       id="path4225" /><path
       style="fill:#0079be"
       inkscape:connector-curvature="0"
       d="M 372.69,504 C 510.44,504.659 636.17,391.659 636.17,254.19 636.17,103.86 510.44,-0.05 372.69,0 L 254.14,0 C 114.74,-0.05 0,103.891 0,254.19 0,391.689 114.74,504.66 254.14,504 l 118.55,0 z"
       id="path4227" /><path
       style="fill:#ffffff"
       inkscape:connector-curvature="0"
       d="M 254.701,20.83 C 127.321,20.87 24.101,124.12 24.071,251.551 24.101,378.96 127.32,482.2 254.701,482.24 382.111,482.2 485.352,378.96 485.37,251.551 485.351,124.12 382.111,20.87 254.701,20.83 Z m -146.19,230.721 0,0 c 0.12,-62.27 39.01,-115.37 93.85,-136.471 l 0,272.91 c -54.84,-21.089 -93.731,-74.16 -93.85,-136.439 z m 198.51,136.499 0,0 0,-272.979 c 54.86,21.05 93.81,74.18 93.91,136.48 -0.1,62.319 -39.05,115.409 -93.91,136.499 z"
       id="path4229" /><path
       style="fill:#211e1f"
       inkscape:connector-curvature="0"
       d="m 716.953,108.431 c 0,-23.841 -12.431,-22.271 -24.351,-22.53 l 0,-6.89 c 10.33,0.51 20.92,0.51 31.271,0.51 11.13,0 26.24,-0.51 45.859,-0.51 68.62,0 105.99,45.84 105.99,92.779 0,26.25 -15.359,92.24 -109.18,92.24 -13.51,0 -25.98,-0.521 -38.43,-0.521 -11.92,0 -23.59,0.261 -35.511,0.521 l 0,-6.88 c 15.891,-1.601 23.591,-2.13 24.351,-20.16 l 0,-128.559 10e-4,0 z m 25.98,124.329 0,0 c 0,20.41 14.59,22.79 27.57,22.79 57.26,0 76.06,-43.21 76.06,-82.71 0,-49.55 -31.81,-85.33 -82.949,-85.33 -10.88,0 -15.88,0.78 -20.68,1.061 l -10e-4,144.189 0,0 z"
       id="path4231" /><path
       style="fill:#211e1f"
       inkscape:connector-curvature="0"
       d="m 885.022,257.151 5.02,0 c 7.41,0 12.721,0 12.721,-8.771 l 0,-71.819 c 0,-11.649 -3.971,-13.27 -13.78,-18.54 l 0,-4.25 c 12.45,-3.74 27.311,-8.74 28.35,-9.54 1.87,-1.06 3.45,-1.34 4.78,-1.34 1.311,0 1.86,1.6 1.86,3.73 l 0,101.759 c 0,8.771 5.83,8.771 13.25,8.771 l 4.5,0 0,6.89 c -9.021,0 -18.3,-0.529 -27.82,-0.529 -9.54,0 -19.09,0.26 -28.88,0.529 l 0,-6.89 -10e-4,0 z m 28.35,-155.071 0,0 c -6.899,0 -12.979,-6.359 -12.979,-13.25 0,-6.64 6.36,-12.75 12.979,-12.75 6.87,0 12.99,5.591 12.99,12.75 0,7.16 -5.849,13.25 -12.99,13.25 z"
       id="path4233" /><path
       style="fill:#211e1f"
       inkscape:connector-curvature="0"
       d="m 966.901,178.141 c 0,-9.8 -2.931,-12.44 -15.36,-17.48 l 0,-5.029 c 11.39,-3.71 22.241,-7.16 34.969,-12.74 0.791,0 1.57,0.54 1.57,2.65 l 0,17.239 c 15.131,-10.859 28.121,-19.89 45.9,-19.89 22.5,0 30.449,16.439 30.449,37.109 l 0,68.381 c 0,8.77 5.83,8.77 13.26,8.77 l 4.771,0 0,6.89 c -9.301,0 -18.57,-0.529 -28.09,-0.529 -9.551,0 -19.102,0.26 -28.631,0.529 l 0,-6.89 4.76,0 c 7.439,0 12.711,0 12.711,-8.77 l 0,-68.631 c 0,-15.13 -9.23,-22.54 -24.361,-22.54 -8.469,0 -21.99,6.891 -30.77,12.73 l 0,78.439 c 0,8.771 5.859,8.771 13.291,8.771 l 4.76,0 0,6.89 c -9.271,0 -18.561,-0.53 -28.1,-0.53 -9.531,0 -19.09,0.261 -28.621,0.53 l 0,-6.89 4.78,0 c 7.42,0 12.71,0 12.71,-8.771 l 0,-70.238 0.002,0 z"
       id="path4235" /><path
       style="fill:#211e1f"
       inkscape:connector-curvature="0"
       d="m 1102.61,190.88 c -0.551,2.391 -0.551,6.36 0,15.38 1.561,25.17 17.77,45.841 38.939,45.841 14.59,0 26.01,-7.95 35.801,-17.75 l 3.699,3.72 c -12.199,16.16 -27.301,29.939 -49.02,29.939 -42.15,0 -50.631,-40.83 -50.631,-57.779 0,-51.961 34.98,-67.341 53.52,-67.341 21.48,0 44.551,13.511 44.801,41.61 0,1.61 0,3.18 -0.25,4.79 l -2.4,1.59 -74.459,0 0,0 z m 46.92,-8.489 0,0 c 6.609,0 7.391,-3.45 7.391,-6.62 0,-13.521 -8.211,-24.391 -23.061,-24.391 -16.15,0 -27.281,11.91 -30.461,31.011 l 46.131,0 0,0 z"
       id="path4237" /><path
       style="fill:#211e1f"
       inkscape:connector-curvature="0"
       d="m 1185.821,257.151 7.16,0 c 7.398,0 12.699,0 12.699,-8.771 l 0,-74.47 c 0,-8.21 -9.789,-9.81 -13.779,-11.93 l 0,-3.96 c 19.35,-8.23 29.959,-15.13 32.369,-15.13 1.57,0 2.35,0.8 2.35,3.46 l 0,23.85 0.561,0 c 6.609,-10.33 17.76,-27.31 33.91,-27.31 6.629,0 15.1,4.5 15.1,14.05 0,7.16 -5.02,13.54 -12.439,13.54 -8.25,0 -8.25,-6.38 -17.51,-6.38 -4.51,0 -19.34,6.1 -19.34,22.01 l 0,62.27 c 0,8.77 5.289,8.77 12.719,8.77 l 14.83,0 0,6.891 c -14.58,-0.271 -25.67,-0.53 -37.09,-0.53 -10.859,0 -22,0.26 -31.539,0.53 l 0,-6.89 -10e-4,0 z"
       id="path4239" /><path
       style="fill:#211e1f"
       inkscape:connector-curvature="0"
       d="m 1287.86,227.18 c 3.451,17.5 14.041,32.351 33.4,32.351 15.6,0 21.439,-9.54 21.439,-18.82 0,-31.28 -57.76,-21.21 -57.76,-63.88 0,-14.85 11.939,-33.94 41.08,-33.94 8.471,0 19.859,2.4 30.189,7.71 l 1.881,27.011 -6.109,0 c -2.641,-16.681 -11.91,-26.23 -28.891,-26.23 -10.6,0 -20.66,6.101 -20.66,17.49 0,31.04 61.48,21.47 61.48,63.08 0,17.49 -14.051,36.06 -45.59,36.06 -10.6,0 -23.051,-3.71 -32.32,-9 l -2.92,-30.489 4.781,-1.343 0,0 z"
       id="path4241" /><path
       style="fill:#211e1f"
       inkscape:connector-curvature="0"
       d="m 1603.221,126.99 -6.611,0 c -5.039,-31 -27.039,-43.47 -56.709,-43.47 -30.5,0 -74.76,20.399 -74.76,84.01 0,53.58 38.189,91.999 78.99,91.999 26.229,0 47.979,-18.02 53.279,-45.859 l 6.08,1.58 -6.08,38.699 c -11.131,6.91 -41.08,14.061 -58.59,14.061 -62,0 -101.211,-40.029 -101.211,-99.67 0,-54.34 48.49,-93.32 100.43,-93.32 21.461,0 42.131,6.92 62.541,14.08 l 2.641,37.89 0,0 z"
       id="path4243" /><path
       style="fill:#211e1f"
       inkscape:connector-curvature="0"
       d="m 1612.782,257.151 5.02,0 c 7.43,0 12.75,0 12.75,-8.771 l 0,-147.619 c 0,-17.24 -3.98,-17.771 -14.061,-20.681 l 0,-4.24 c 10.6,-3.439 21.73,-8.22 27.301,-11.409 2.889,-1.58 5.029,-2.921 5.809,-2.921 1.621,0 2.15,1.601 2.15,3.73 l 0,183.14 c 0,8.771 5.82,8.771 13.25,8.771 l 4.471,0 0,6.89 c -8.971,0 -18.25,-0.53 -27.801,-0.53 -9.529,0 -19.07,0.261 -28.891,0.53 l 0,-6.89 0,0 z"
       id="path4245" /><path
       style="fill:#211e1f"
       inkscape:connector-curvature="0"
       d="m 1782.948,249.441 c 0,4.79 2.9,5.05 7.4,5.05 3.189,0 7.15,-0.26 10.609,-0.26 l 0,5.58 c -11.408,1.05 -33.139,6.62 -38.18,8.2 l -1.33,-0.801 0,-21.449 c -15.879,12.979 -28.09,22.25 -46.92,22.25 -14.309,0 -29.148,-9.271 -29.148,-31.521 l 0,-67.88 c 0,-6.89 -1.051,-13.521 -15.871,-14.84 l 0,-5.04 c 9.551,-0.26 30.711,-1.851 34.17,-1.851 2.941,0 2.941,1.851 2.941,7.681 l 0,68.369 c 0,7.971 0,30.76 23.039,30.76 9.01,0 20.93,-6.89 32.051,-16.14 l 0,-71.34 c 0,-5.28 -12.711,-8.19 -22.23,-10.851 l 0,-4.77 c 23.82,-1.6 38.689,-3.71 41.32,-3.71 2.148,0 2.148,1.85 2.148,4.78 l 0,97.783 0,0 z"
       id="path4247" /><path
       style="fill:#211e1f"
       inkscape:connector-curvature="0"
       d="m 1835.682,161.981 c 10.59,-9.011 24.898,-19.09 39.488,-19.09 30.75,0 49.281,26.8 49.281,55.669 0,34.721 -25.43,69.45 -63.352,69.45 -19.6,0 -29.93,-6.37 -36.83,-9.271 l -7.939,6.08 -5.549,-2.899 c 2.35,-15.64 3.699,-31.02 3.699,-47.18 l 0,-113.98 c 0,-17.239 -4,-17.77 -14.061,-20.68 l 0,-4.24 c 10.631,-3.439 21.73,-8.22 27.301,-11.41 2.92,-1.58 5.029,-2.92 5.85,-2.92 1.58,0 2.109,1.601 2.109,3.73 l 0,96.74 0,0 z m 0,72.09 0,0 c 0,10.08 9.529,27.06 27.289,27.06 28.359,0 40.279,-27.85 40.279,-51.449 0,-28.62 -21.709,-52.47 -42.389,-52.47 -9.83,0 -18.031,6.37 -25.18,12.479 l 0,64.38 10e-4,0 z"
       id="path4249" /><path
       style="fill:#211e1f"
       inkscape:connector-curvature="0"
       d="m 692.299,418.15 2.03,0 c 5.18,0 10.66,-0.699 10.66,-8.21 l 0,-75.56 c 0,-7.521 -5.48,-8.23 -10.66,-8.23 l -2.03,0 0,-4.33 c 5.63,0 14.28,0.57 21.37,0.57 7.2,0 15.84,-0.57 22.62,-0.57 l 0,4.33 -2.03,0 c -5.17,0 -10.659,0.71 -10.659,8.23 l 0,75.56 c 0,7.511 5.489,8.21 10.659,8.21 l 2.03,0 0,4.351 c -6.92,0 -15.59,-0.57 -22.78,-0.57 -7.069,0 -15.58,0.57 -21.21,0.57 l 0,-4.351 0,0 z"
       id="path4251" /><path
       style="fill:#211e1f"
       inkscape:connector-curvature="0"
       d="m 736.293,423.111 c -6.97,0 -15.609,-0.58 -22.79,-0.58 -7.05,0 -15.529,0.58 -21.2,0.58 l -0.619,0 0,-0.62 0,-4.33 0,-0.63 0.619,0 2.021,0 c 5.229,-0.12 9.99,-0.54 10.04,-7.59 l 0,-75.561 c -0.05,-7.05 -4.81,-7.521 -10.04,-7.62 l -2.64,0 0,-0.609 0,-4.971 0.619,0 c 5.671,0 14.311,0.57 21.36,0.57 7.18,0 15.811,-0.57 22.63,-0.57 l 0.641,0 0,0.66 0,4.92 -0.641,0 -2.02,0 c -5.23,0.1 -10.021,0.57 -10.05,7.62 l 0,75.561 c 0.029,7.05 4.819,7.47 10.05,7.59 l 2.66,0 0,0.63 0,4.95 -0.64,0 0,0 z m -0.62,-1.231 0,0 0,-3.08 -1.399,0 c -5.15,0 -11.28,-0.89 -11.311,-8.859 l 0,-75.561 c 0.03,-7.97 6.16,-8.87 11.311,-8.87 l 1.399,0 0,-3.06 c -6.66,0 -15.01,0.56 -22.01,0.56 -6.85,0 -15.14,-0.52 -20.72,-0.56 l 0,3.06 1.38,0 c 5.14,0 11.29,0.9 11.29,8.87 l 0,75.561 c 0,7.97 -6.15,8.859 -11.29,8.859 l -1.38,0 0,3.08 c 5.58,-0.06 13.729,-0.58 20.56,-0.58 7.02,0 15.37,0.54 22.17,0.58 l 0,0 z"
       id="path4253" /><path
       style="fill:#211e1f"
       inkscape:connector-curvature="0"
       d="m 835.363,394.07 0.289,-0.28 0,-54.08 c 0,-11.84 -8.229,-13.56 -12.549,-13.56 l -3.181,0 0,-4.331 c 6.79,0 13.42,0.57 20.19,0.57 5.909,0 11.85,-0.57 17.75,-0.57 l 0,4.331 -2.16,0 c -6.07,0 -12.85,1.149 -12.85,18.31 l 0,65.64 c 0,5.041 0.149,10.08 0.859,14.551 l -5.489,0 -74.25,-82.79 0,59.43 c 0,12.55 2.43,16.86 13.55,16.86 l 2.439,0 0,4.35 c -6.189,0 -12.38,-0.57 -18.59,-0.57 -6.47,0 -13.109,0.57 -19.609,0.57 l 0,-4.35 2.02,0 c 9.95,0 12.971,-6.761 12.971,-18.29 l 0,-60.75 c 0,-8.07 -6.65,-12.96 -13.11,-12.96 l -1.88,0 0,-4.33 c 5.479,0 11.1,0.569 16.57,0.569 4.329,0 8.52,-0.569 12.839,-0.569 l 64.191,72.249 0,0 z"
       id="path4255" /><path
       style="fill:#211e1f"
       inkscape:connector-curvature="0"
       d="m 843.708,425.281 -5.949,-0.221 -73.181,-81.569 0,57.8 c 0.17,12.54 2.08,16.101 12.94,16.24 l 3.09,0 0,0.62 0,4.96 -0.64,0 c -6.24,0 -12.45,-0.58 -18.601,-0.58 -6.46,0 -13.08,0.58 -19.62,0.58 l -0.63,0 0,-0.62 0,-4.96 0.63,0 2.03,0 c 9.53,-0.05 12.25,-6.17 12.36,-17.67 l 0,-60.74 c -0.021,-7.68 -6.32,-12.34 -12.5,-12.36 l -2.521,0 0,-0.64 0,-4.92 0.63,0 c 5.511,0 11.16,0.55 16.57,0.55 4.29,0 8.471,-0.55 13.33,-0.34 l 63.38,71.351 0,-53.04 c -0.08,-11.48 -7.729,-12.86 -11.93,-12.961 l -3.82,0 0,-0.64 0,-4.92 0.64,0 c 6.811,0 13.45,0.55 20.19,0.55 5.87,0 11.78,-0.55 17.74,-0.55 l 0.63,0 0,0.62 0,4.939 -0.63,0 -2.15,0 c -5.95,0.171 -12.06,0.69 -12.229,17.7 l 0,65.63 c 0,5.04 0.149,10.08 0.85,14.45 l 0.14,0.74 -0.749,0 0,0.001 z m -5.479,-1.271 0,0 4.77,0 c -0.649,-4.33 -0.76,-9.13 -0.76,-13.92 l 0,-65.63 c 0,-17.31 7.25,-18.949 13.46,-18.949 l 1.52,0 0,-3.061 c -5.68,0.04 -11.38,0.56 -17.109,0.56 -6.6,0 -13.02,-0.52 -19.55,-0.56 l -0.01,3.061 2.55,0 c 4.43,0 13.18,1.979 13.18,14.21 l -0.2,54.499 -0.29,0.301 -0.489,0.45 -64.131,-72.521 c -4.279,0 -8.46,0.56 -12.85,0.56 -5.29,0 -10.7,-0.52 -15.93,-0.56 l -0.03,3.06 1.28,0 c 6.77,0 13.72,5.17 13.72,13.61 l 0,60.74 c 0,11.529 -3.21,18.909 -13.58,18.949 l -1.39,-0.04 0,3.11 c 6.25,-0.06 12.67,-0.58 18.979,-0.58 6.021,0 12.011,0.521 17.97,0.58 l 0,-3.07 -1.819,0 c -11.351,-0.04 -14.17,-4.979 -14.181,-17.52 l 0,-61.05 74.89,83.771 0,0 z m -2.871,-29.95 0,0 0.46,-0.42 -0.46,0.42 z m -0.33,-0.279 0,0 0,-0.05 -0.12,-0.101 0.12,0.151 z"
       id="path4257" /><path
       style="fill:#211e1f"
       inkscape:connector-curvature="0"
       d="m 879.449,329.02 c -10.83,0 -11.24,2.601 -13.4,13.12 l -4.33,0 c 0.57,-4.03 1.29,-8.06 1.73,-12.26 0.579,-4.04 0.859,-8.061 0.859,-12.24 l 3.47,0 c 1.16,4.33 4.761,4.18 8.671,4.18 l 74.39,0 c 3.899,0 7.5,-0.14 7.8,-4.479 l 3.439,0.58 c -0.56,3.899 -1.14,7.79 -1.58,11.689 -0.26,3.891 -0.26,7.79 -0.26,11.67 l -4.34,1.61 c -0.3,-5.33 -1.02,-13.87 -10.67,-13.87 l -23.65,0 0,76.74 c 0,11.12 5.051,12.391 11.95,12.391 l 2.75,0 0,4.35 c -5.62,0 -15.729,-0.57 -23.5,-0.57 -8.649,0 -18.76,0.57 -24.39,0.57 l 0,-4.35 2.75,0 c 7.95,0 11.97,-0.711 11.97,-12.091 l 0,-77.04 -23.659,0 0,0 z"
       id="path4259" /><path
       style="fill:#211e1f"
       inkscape:connector-curvature="0"
       d="m 936.301,423.111 c -5.681,0 -15.771,-0.58 -23.521,-0.58 -8.64,0 -18.729,0.58 -24.39,0.58 l -0.6,0 0,-0.61 0,-4.97 0.6,0 2.75,0 c 7.95,-0.19 11.149,-0.29 11.33,-11.471 l 0,-76.409 -23.02,0 0,-0.631 0,-0.64 24.271,0 0,77.68 c 0,11.57 -4.66,12.74 -12.58,12.75 l -2.12,0 0,3.04 c 5.69,-0.029 15.39,-0.55 23.76,-0.55 7.521,0 17.16,0.521 22.86,0.55 l 0,-3.04 -2.11,0 c -6.97,-0.01 -12.58,-1.72 -12.58,-13.05 l 0,-77.38 24.28,0 c 9.68,0.04 10.94,8.27 11.26,13.62 l 3.11,-1.15 c 0,-3.76 0.02,-7.53 0.28,-11.33 0.42,-3.71 0.95,-7.39 1.49,-11.07 l -2.201,-0.37 c -0.669,4.2 -4.72,4.41 -8.35,4.37 l -74.37,0 -0.75,0 c -3.39,0 -7.1,-0.16 -8.39,-4.189 l -2.38,0 c -0.021,3.99 -0.301,7.86 -0.851,11.699 -0.42,3.961 -1.08,7.771 -1.62,11.581 l 3.091,0 c 1.899,-10.051 3.14,-13.311 13.899,-13.16 l 0,0.64 0,0.63 c -10.66,0.19 -10.439,1.99 -12.79,12.65 l -0.109,0.49 -0.5,0 -5.05,0 0.08,-0.75 c 0.58,-4.04 1.311,-8.061 1.74,-12.261 0.6,-4 0.88,-8 0.88,-12.14 l 0,-0.63 0.61,0 3.96,0 0.1,0.45 c 0.99,3.64 3.66,3.66 7.33,3.72 l 0.75,0 74.37,0 c 4.021,-0.06 6.94,-0.12 7.19,-3.891 l 0.06,-0.68 0.65,0.14 4.07,0.641 -0.091,0.63 c -0.58,3.86 -1.149,7.76 -1.569,11.63 -0.29,3.84 -0.29,7.74 -0.29,11.63 l 0,0.45 -0.4,0.16 -5.11,1.859 -0.039,-0.84 c -0.381,-5.42 -0.951,-13.26 -10.061,-13.26 l -23.02,0 0,76.11 c 0.13,10.88 4.449,11.63 11.319,11.77 l 3.38,0 0,0.62 0,4.96 -0.608,0.002 0,0 z"
       id="path4261" /><path
       style="fill:#211e1f"
       inkscape:connector-curvature="0"
       d="m 966.691,418.15 2.03,0 c 5.181,0 10.669,-0.699 10.669,-8.21 l 0,-75.56 c 0,-7.521 -5.488,-8.23 -10.669,-8.23 l -2.03,0 0,-4.33 c 8.78,0 23.801,0.57 35.889,0.57 12.141,0 27.111,-0.57 36.91,-0.57 -0.238,6.19 -0.109,15.73 0.32,22.061 l -4.35,1.159 c -0.689,-9.369 -2.42,-16.859 -17.57,-16.859 l -20.029,0 0,37.77 17.141,0 c 8.648,0 10.539,-4.89 11.389,-12.699 l 4.32,0 c -0.279,5.649 -0.43,11.27 -0.43,16.89 0,5.49 0.15,10.96 0.43,16.44 l -4.32,0.859 c -0.85,-8.649 -1.289,-14.27 -11.25,-14.27 l -17.279,0 0,33.59 c 0,9.39 8.33,9.39 17.57,9.39 17.309,0 24.939,-1.17 29.27,-17.59 l 4.041,0.99 c -1.891,7.66 -3.611,15.29 -4.891,22.95 -9.24,0 -25.83,-0.57 -38.791,-0.57 -13,0 -30.148,0.57 -38.37,0.57 l 0,-4.351 0,0 z"
       id="path4263" /><path
       style="fill:#211e1f"
       inkscape:connector-curvature="0"
       d="m 1043.838,423.111 c -9.26,0 -25.84,-0.591 -38.789,-0.591 -12.99,0 -30.131,0.591 -38.361,0.591 l -0.609,0 0,-0.61 0,-4.35 0,-0.62 0.609,0 2.021,0 c 5.229,-0.08 9.969,-0.54 10.04,-7.59 l 0,-75.561 c -0.07,-7.04 -4.811,-7.51 -10.04,-7.62 l -2.63,0 0,-0.609 0,-4.95 0.609,0 c 8.8,0 23.8,0.55 35.89,0.55 12.129,0 27.09,-0.55 36.91,-0.55 l 0.65,0 -0.031,0.64 c -0.1,2.17 -0.139,4.729 -0.139,7.45 0,4.989 0.139,10.439 0.43,14.55 l 0.02,0.52 -0.48,0.141 -5.07,1.32 -0.029,-0.74 c -0.85,-9.36 -2.1,-16.15 -16.949,-16.29 l -19.43,0 -0.021,36.51 16.561,0 c 8.301,-0.08 9.789,-4.33 10.77,-12.1 l 0.051,-0.57 0.559,0 4.971,0 -0.01,0.649 c -0.279,5.62 -0.461,11.24 -0.461,16.86 0,5.46 0.182,10.93 0.461,16.42 l 0.01,0.511 -0.52,0.119 -5.01,1 -0.051,-0.68 c -0.99,-8.8 -1.061,-13.62 -10.641,-13.729 l -16.67,-0.011 0,32.99 c 0.012,8.76 7.57,8.71 16.971,8.76 17.359,-0.1 24.32,-0.939 28.67,-17.14 l 0.141,-0.58 0.609,0.11 4.621,1.189 -0.141,0.601 c -1.859,7.64 -3.59,15.26 -4.881,22.899 l -0.119,0.511 -0.492,0 0,0 z m -0.529,-1.26 0,0 c 1.25,-7.271 2.898,-14.57 4.67,-21.831 l -2.85,-0.72 c -4.32,16.141 -12.682,17.58 -29.701,17.471 -9.08,0 -18.18,0 -18.221,-10.011 l 0,-34.22 17.922,0 c 10.068,-0.11 11.1,5.97 11.809,14.18 l 3.121,-0.649 c -0.281,-5.311 -0.41,-10.641 -0.41,-15.931 0,-5.43 0.129,-10.829 0.41,-16.26 l -3.121,0 c -0.799,7.51 -3.15,12.79 -11.939,12.69 l -17.791,0 0,-39.04 20.682,0 c 15,-0.101 17.488,7.64 18.129,16.71 l 3.111,-0.84 c -0.25,-4.07 -0.422,-9.29 -0.422,-14.11 0,-2.47 0.061,-4.8 0.141,-6.84 -9.799,0.04 -24.4,0.56 -36.27,0.56 -11.85,0 -26.439,-0.52 -35.27,-0.56 l 0,3.06 1.399,0 c 5.14,0 11.281,0.9 11.3,8.87 l 0,75.561 c -0.02,7.95 -6.16,8.83 -11.3,8.87 l -1.399,0 0,3.04 c 8.411,-0.011 25.071,-0.55 37.739,-0.55 12.72,0 28.96,0.539 38.261,0.55 l 0,0 z"
       id="path4265" /><path
       style="fill:#211e1f"
       inkscape:connector-curvature="0"
       d="m 1068.202,337.1 c 0,-10.52 -5.76,-10.95 -10.25,-10.95 l -2.59,0 0,-4.34 c 4.619,0 13.549,0.58 22.35,0.58 8.65,0 15.58,-0.58 23.211,-0.58 18.158,0 34.33,4.91 34.33,25.41 0,12.95 -8.65,20.89 -20.041,25.38 l 24.65,36.9 c 4.039,6.1 6.91,7.81 13.99,8.649 l 0,4.351 c -4.76,0 -9.381,-0.57 -14.131,-0.57 -4.469,0 -9.1,0.57 -13.551,0.57 -11.1,-14.57 -20.639,-30.15 -30.01,-46.75 l -9.488,0 0,30.88 c 0,11.12 5.17,11.52 11.799,11.52 l 2.6,0 0,4.351 c -8.24,0 -16.568,-0.57 -24.799,-0.57 -6.93,0 -13.711,0.57 -20.91,0.57 l 0,-4.351 2.59,0 c 5.359,0 10.25,-2.42 10.25,-7.77 l 0,-73.28 0,0 z m 18.468,33.46 0,0 7.041,0 c 14.43,0 22.199,-5.479 22.199,-22.5 0,-12.82 -8.209,-21.05 -21.059,-21.05 -4.33,0 -6.17,0.45 -8.182,0.58 l 0,42.97 z"
       id="path4267" /><path
       style="fill:#211e1f"
       inkscape:connector-curvature="0"
       d="m 1153.852,423.111 c -4.83,0 -9.42,-0.58 -14.16,-0.58 -4.4,0 -9,0.58 -14.029,0.34 -11.061,-14.51 -20.541,-30 -29.861,-46.48 l -8.52,0 0,30.221 c 0.15,10.85 4.51,10.76 11.18,10.92 l 3.23,0 0,0.62 0,4.96 -0.641,0 c -8.24,0 -16.609,-0.58 -24.799,-0.58 -6.891,0 -13.65,0.58 -20.891,0.58 l -0.631,0 0,-0.62 0,-4.96 0.631,0 2.59,0 c 5.199,-0.03 9.58,-2.29 9.6,-7.15 l 0,-73.279 c -0.109,-10.24 -5.119,-10.181 -9.6,-10.33 l -3.221,0 0,-0.62 0,-4.97 0.631,0 c 4.67,0 13.57,0.569 22.35,0.569 8.609,0 15.541,-0.569 23.221,-0.569 18.17,0.04 34.91,5.06 34.959,26 0,13.03 -8.609,21.159 -19.74,25.7 l 24.23,36.279 c 4.031,5.98 6.541,7.471 13.561,8.37 l 0.529,0.08 0,0.54 0,4.96 -0.619,0 0,-0.001 z m -67.199,-47.981 0,0 9.859,0 0.17,0.32 c 9.4,16.57 18.869,32.13 29.49,46.43 4.4,0 9.029,-0.59 13.52,-0.59 4.609,0 9.049,0.5 13.539,0.57 l 0,-3.16 c -6.77,-0.84 -9.939,-2.86 -13.879,-8.85 l -25.09,-37.551 0.709,-0.29 c 11.281,-4.439 19.631,-12.149 19.641,-24.83 -0.01,-20.01 -15.551,-24.649 -33.68,-24.729 -7.611,0 -14.531,0.57 -23.221,0.57 -8.469,0 -17.02,-0.53 -21.74,-0.57 l 0,3.06 1.98,0 c 4.48,0.011 10.859,0.75 10.859,11.591 l 0,73.279 c 0,5.79 -5.43,8.43 -10.859,8.44 l -1.98,0 0,3.039 c 6.941,-0.02 13.51,-0.569 20.281,-0.569 8.068,0 16.199,0.55 24.18,0.569 l 0,-3.039 -1.971,0 c -6.58,-0.011 -12.439,-0.83 -12.439,-12.21 l 0,-31.48 0.629,0 0,0 z m 0,-3.96 0,0 -0.631,0 0,-44.16 0.549,-0.05 c 1.971,-0.149 3.922,-0.56 8.281,-0.56 13.141,0 21.68,8.54 21.699,21.689 -0.039,17.22 -8.299,23.07 -22.84,23.08 l -7.058,0 0,0.001 z m 7.058,-1.239 0,0 c 14.279,-0.121 21.461,-5.08 21.611,-21.841 -0.08,-12.6 -7.91,-20.42 -20.471,-20.47 -3.9,0 -5.73,0.36 -7.57,0.521 l 0,41.79 6.43,0 0,0 z"
       id="path4269" /><path
       style="fill:#211e1f"
       inkscape:connector-curvature="0"
       d="m 1251.762,394.07 0.26,-0.28 0,-54.08 c 0,-11.84 -8.209,-13.56 -12.529,-13.56 l -3.16,0 0,-4.331 c 6.77,0 13.391,0.57 20.18,0.57 5.92,0 11.811,-0.57 17.76,-0.57 l 0,4.331 -2.17,0 c -6.059,0 -12.84,1.149 -12.84,18.31 l 0,65.64 c 0,5.041 0.141,10.08 0.85,14.551 l -5.469,0 -74.26,-82.79 0,59.43 c 0,12.55 2.449,16.86 13.549,16.86 l 2.451,0 0,4.35 c -6.191,0 -12.4,-0.57 -18.59,-0.57 -6.512,0 -13.141,0.57 -19.621,0.57 l 0,-4.35 2,0 c 9.961,0 12.99,-6.761 12.99,-18.29 l 0,-60.75 c 0,-8.07 -6.631,-12.96 -13.109,-12.96 l -1.881,0 0,-4.33 c 5.461,0 11.111,0.569 16.58,0.569 4.301,0 8.5,-0.569 12.83,-0.569 l 64.179,72.249 0,0 z"
       id="path4271" /><path
       style="fill:#211e1f"
       inkscape:connector-curvature="0"
       d="m 1260.118,425.27 -5.939,-0.2 -73.189,-81.579 0,57.79 c 0.17,12.55 2.07,16.109 12.949,16.25 l 3.051,0 0,0.62 0,4.96 -0.631,0 c -6.238,0 -12.42,-0.591 -18.6,-0.591 -6.439,0 -13.1,0.591 -19.59,0.591 l -0.65,0 0,-0.61 0,-4.97 0.65,0 2,0 c 9.52,-0.04 12.25,-6.17 12.34,-17.71 l 0,-60.71 c -0.01,-7.681 -6.299,-12.34 -12.459,-12.351 l -2.531,0 0,-0.609 0,-4.97 0.65,0 c 5.5,0 11.141,0.569 16.58,0.569 4.24,0 8.42,-0.569 13.26,-0.37 l 63.391,71.381 0,-53.061 c -0.041,-11.46 -7.721,-12.88 -11.91,-12.939 l -3.811,0 0,-0.61 0,-4.97 0.631,0 c 6.82,0 13.459,0.569 20.199,0.569 5.881,0 11.791,-0.569 17.73,-0.569 l 0.629,0 0,0.65 0,4.93 -0.629,0 -2.141,0 c -5.949,0.16 -12.08,0.689 -12.23,17.7 l 0,65.629 c 0,5.04 0.131,10.04 0.861,14.48 l 0.08,0.7 -0.691,0 0,0 z m -5.479,-1.26 0,0 4.74,0 c -0.631,-4.33 -0.771,-9.13 -0.771,-13.92 l 0,-65.63 c 0.01,-17.311 7.311,-18.91 13.49,-18.96 l 1.51,0 0,-3.05 c -5.66,0.04 -11.369,0.56 -17.1,0.56 -6.619,0 -13.051,-0.52 -19.58,-0.56 l 0,3.05 2.561,0 c 4.439,0.05 13.18,1.99 13.18,14.2 l -0.199,54.52 -0.281,0.3 -0.439,0.46 -64.18,-72.529 c -4.281,0 -8.461,0.56 -12.82,0.56 -5.34,0 -10.73,-0.52 -15.98,-0.56 l 0,3.05 1.279,0 c 6.771,0.05 13.721,5.16 13.721,13.61 l 0,60.709 c 0,11.58 -3.26,18.95 -13.6,18.99 l -1.4,-0.01 0,3.05 c 6.23,-0.03 12.66,-0.55 18.99,-0.55 6.051,0 12.041,0.52 18,0.55 l 0,-3.04 -1.82,0 c -11.359,-0.01 -14.199,-4.979 -14.219,-17.53 l 0,-61.02 74.918,83.75 0,0 z m -2.881,-29.95 0,0 0.439,-0.41 -0.439,0.41 z m -0.359,-0.27 0,0 0,-0.051 -0.111,-0.109 0.111,0.16 z"
       id="path4273" /><path
       style="fill:#211e1f"
       inkscape:connector-curvature="0"
       d="m 1297.461,401.87 c -1.459,4.89 -3.199,8.67 -3.199,11.24 0,4.34 6.07,5.04 10.811,5.04 l 1.609,0 0,4.35 c -5.779,-0.311 -11.67,-0.57 -17.48,-0.57 -5.189,0 -10.35,0.261 -15.549,0.57 l 0,-4.35 0.869,0 c 5.619,0 10.391,-3.311 12.52,-9.38 l 23.1,-66.181 c 1.861,-5.34 4.48,-12.55 5.352,-17.899 4.59,-1.57 10.369,-4.45 13.1,-6.19 0.449,-0.149 0.699,-0.3 1.15,-0.3 0.43,0 0.709,0 1.029,0.45 0.42,1.14 0.84,2.45 1.301,3.6 l 26.529,75.44 c 1.73,5.04 3.439,10.37 5.311,14.71 1.74,4.04 4.779,5.75 9.549,5.75 l 0.85,0 0,4.35 c -6.488,-0.31 -12.988,-0.569 -19.889,-0.569 -7.07,0 -14.301,0.26 -21.65,0.569 l 0,-4.35 1.6,0 c 3.301,0 8.941,-0.56 8.941,-4.17 0,-1.87 -1.301,-5.76 -2.91,-10.39 l -5.611,-16.73 -32.729,0 -4.604,15.01 0,0 z m 21.041,-63.9 0,0 -0.291,0 -13.41,40.82 26.951,0 -13.25,-40.82 z"
       id="path4275" /><path
       style="fill:#211e1f"
       inkscape:connector-curvature="0"
       d="m 1374.272,423.111 c -6.49,-0.29 -12.98,-0.591 -19.85,-0.591 -7.07,0 -14.25,0.301 -21.631,0.591 l -0.65,0.04 0,-0.65 0,-4.99 0.631,0 1.59,0 c 3.34,0 8.299,-0.76 8.299,-3.529 0.041,-1.641 -1.26,-5.601 -2.85,-10.19 l -5.49,-16.31 -31.809,0 -4.48,14.569 c -1.461,4.92 -3.189,8.73 -3.18,11.08 0.049,3.521 5.439,4.38 10.219,4.38 l 2.221,0 0,0.65 0,4.99 -0.65,-0.04 c -5.77,-0.29 -11.66,-0.591 -17.41,-0.591 -5.17,0 -10.369,0.301 -15.539,0.591 l -0.67,0.04 0,-0.65 0,-4.99 0.629,0 0.861,0 c 5.369,-0.02 9.85,-3.069 11.93,-8.939 l 23.09,-66.19 c 1.891,-5.35 4.49,-12.54 5.74,-18.29 4.52,-1.53 10.309,-4.43 13.09,-6.19 0.4,-0.13 0.801,-0.33 1.391,-0.33 0.35,-0.01 1.129,0.08 1.59,0.841 0.41,1.189 0.859,2.47 1.299,3.64 l 26.561,75.431 c 1.701,5.06 3.42,10.39 5.301,14.649 1.67,3.851 4.32,5.36 8.959,5.38 l 1.471,0 0,0.65 0,4.99 -0.663,-0.042 0,0 z m -40.871,-1.29 0,0 c 7.141,-0.25 14.131,-0.53 21.021,-0.53 6.699,0 12.969,0.28 19.238,0.53 l 0,-3.011 -0.199,0 c -4.939,0.03 -8.35,-1.909 -10.121,-6.159 -1.879,-4.38 -3.639,-9.73 -5.328,-14.78 l -26.551,-75.42 c -0.439,-1.15 -0.859,-2.46 -1.24,-3.48 -0.119,-0.14 -0.09,-0.14 -0.209,-0.14 l -0.262,0 c -0.299,0 -0.469,0.09 -0.84,0.19 -2.779,1.81 -8.568,4.64 -12.84,5.77 -0.889,5.46 -3.479,12.66 -5.359,18 l -23.08,66.2 c -2.199,6.26 -7.25,9.83 -13.119,9.819 l -0.23,0 0,3.011 c 4.939,-0.25 9.939,-0.53 14.949,-0.53 5.57,0 11.27,0.28 16.77,0.53 l 0,-3.011 -0.93,0 c -4.689,-0.06 -11.25,-0.59 -11.43,-5.68 0.01,-2.88 1.781,-6.569 3.189,-11.439 l 0.631,0.189 -0.631,-0.21 4.75,-15.42 33.621,0 5.789,17.141 c 1.621,4.63 2.93,8.47 2.93,10.59 -0.199,4.43 -6.289,4.74 -9.559,4.83 l -0.961,0 0,3.01 10e-4,0 z m -29.479,-42.411 0,0 13.809,-42.07 0.48,0 0.301,0 0,0.63 -0.16,0.03 0.16,-0.03 0,-0.63 0.43,0 13.689,42.07 -28.709,0 z m 1.729,-1.25 0,0 25.24,0 -12.551,-38.65 -12.689,38.65 z m 12.23,-40.009 0,0 0.33,-0.11 -0.33,0.11 z"
       id="path4277" /><path
       style="fill:#211e1f"
       inkscape:connector-curvature="0"
       d="m 1380.653,329.02 c -10.82,0 -11.25,2.601 -13.422,13.12 l -4.33,0 c 0.57,-4.03 1.301,-8.06 1.752,-12.26 0.578,-4.04 0.84,-8.061 0.84,-12.24 l 3.479,0 c 1.15,4.33 4.771,4.18 8.641,4.18 l 74.43,0 c 3.871,0 7.471,-0.14 7.771,-4.479 l 3.449,0.58 c -0.551,3.899 -1.119,7.79 -1.561,11.689 -0.309,3.891 -0.309,7.79 -0.309,11.67 l -4.32,1.61 c -0.271,-5.33 -0.99,-13.87 -10.66,-13.87 l -23.65,0 0,76.74 c 0,11.12 5.061,12.391 11.961,12.391 l 2.738,0 0,4.35 c -5.619,0 -15.699,-0.57 -23.5,-0.57 -8.639,0 -18.75,0.57 -24.369,0.57 l 0,-4.35 2.73,0 c 7.949,0 11.99,-0.711 11.99,-12.091 l 0,-77.04 -23.66,0 0,0 z"
       id="path4279" /><path
       style="fill:#211e1f"
       inkscape:connector-curvature="0"
       d="m 1437.463,423.111 c -5.66,0 -15.76,-0.58 -23.5,-0.58 -8.621,0 -18.721,0.58 -24.371,0.58 l -0.639,0 0,-0.61 0,-4.97 0.639,0 2.73,0 c 7.949,-0.19 11.141,-0.29 11.34,-11.471 l -0.02,-76.409 -22.99,0 0,-0.631 0,-0.64 24.26,0 0,77.68 c 0,11.57 -4.67,12.71 -12.59,12.74 l -2.119,0 0,3.08 c 5.709,-0.061 15.389,-0.58 23.76,-0.58 7.529,0 17.17,0.521 22.869,0.58 l 0,-3.08 -2.129,0 c -6.932,-0.03 -12.551,-1.7 -12.57,-13.04 l 0,-77.38 24.279,0 c 9.68,0.04 10.949,8.27 11.221,13.62 l 3.15,-1.15 c 0,-3.76 0.01,-7.53 0.289,-11.31 0.4,-3.71 0.939,-7.41 1.471,-11.091 l -2.18,-0.37 c -0.66,4.2 -4.73,4.431 -8.32,4.37 l -74.432,0 -0.729,0 c -3.4,0.04 -7.08,-0.16 -8.391,-4.21 l -2.359,0 c -0.041,4 -0.311,7.881 -0.881,11.721 -0.379,3.97 -1.09,7.79 -1.629,11.58 l 3.09,0 c 1.91,-10.051 3.16,-13.311 13.939,-13.16 l 0,0.64 0,0.63 c -10.689,0.181 -10.449,1.99 -12.811,12.65 l -0.109,0.49 -0.5,0 -5.061,0 0.09,-0.721 c 0.6,-4.069 1.32,-8.09 1.74,-12.26 0.59,-4.03 0.871,-8.03 0.871,-12.17 l 0,-0.63 0.619,0 3.939,0 0.121,0.45 c 1.01,3.64 3.639,3.66 7.33,3.72 l 0.729,0.02 74.432,0 c 3.98,-0.079 6.889,-0.14 7.139,-3.899 l 0.041,-0.69 0.68,0.141 4.09,0.64 -0.109,0.63 c -0.59,3.86 -1.141,7.76 -1.58,11.63 -0.291,3.84 -0.291,7.75 -0.291,11.63 l 0,0.45 -0.408,0.16 -5.111,1.86 -0.029,-0.841 c -0.371,-5.419 -0.941,-13.26 -10.051,-13.26 l -23.029,0 0,76.11 c 0.15,10.88 4.459,11.63 11.32,11.77 l 3.379,0 0,0.62 0,4.96 -0.619,10e-4 0,0 z"
       id="path4281" /><path
       style="fill:#211e1f"
       inkscape:connector-curvature="0"
       d="m 1468.588,418.15 2.021,0 c 5.209,0 10.658,-0.699 10.658,-8.21 l 0,-75.56 c 0,-7.521 -5.449,-8.23 -10.658,-8.23 l -2.021,0 0,-4.33 c 5.631,0 14.271,0.57 21.32,0.57 7.24,0 15.891,-0.57 22.67,-0.57 l 0,4.33 -2.02,0 c -5.189,0 -10.689,0.71 -10.689,8.23 l 0,75.56 c 0,7.511 5.5,8.21 10.689,8.21 l 2.02,0 0,4.351 c -6.93,0 -15.59,-0.57 -22.779,-0.57 -7.08,0 -15.58,0.57 -21.211,0.57 l 0,-4.351 z"
       id="path4283" /><path
       style="fill:#211e1f"
       inkscape:connector-curvature="0"
       d="m 1512.583,423.111 c -6.969,0 -15.6,-0.591 -22.789,-0.591 -7.051,0 -15.57,0.591 -21.201,0.591 l -0.629,0 0,-0.61 0,-4.35 0,-0.62 0.629,0 2.021,0 c 5.209,-0.08 9.99,-0.53 10.01,-7.59 l 0,-75.561 c -0.02,-7.04 -4.801,-7.521 -10.01,-7.62 l -2.65,0 0,-0.609 0,-4.95 0.629,0 c 5.631,0 14.291,0.55 21.32,0.55 7.191,0 15.84,-0.55 22.67,-0.55 l 0.611,0 0,0.619 0,4.94 -0.611,0 -2.02,0 c -5.27,0.1 -10,0.58 -10.07,7.62 l 0,75.561 c 0.07,7.06 4.801,7.51 10.07,7.59 l 2.631,0 0,0.62 0,4.96 -0.611,0 0,0 z m -0.649,-1.26 0,0 0,-3.051 -1.371,0 c -5.17,0 -11.289,-0.909 -11.289,-8.859 l 0,-75.561 c 0,-7.97 6.119,-8.87 11.289,-8.87 l 1.371,0 0,-3.06 c -6.66,0.04 -14.99,0.56 -22.021,0.56 -6.83,0 -15.1,-0.52 -20.689,-0.56 l 0,3.06 1.391,0 c 5.129,0 11.27,0.9 11.289,8.87 l 0,75.561 c -0.02,7.949 -6.16,8.859 -11.289,8.859 l -1.391,0 0,3.051 c 5.561,-0.061 13.721,-0.551 20.57,-0.551 6.99,0 15.34,0.521 22.139,0.551 l 10e-4,0 z"
       id="path4285" /><path
       style="fill:#211e1f"
       inkscape:connector-curvature="0"
       d="m 1570.088,319.66 c 30.74,0 55.24,19.06 55.24,49.77 0,33.181 -23.791,55.23 -54.49,55.23 -30.6,0 -53.939,-20.771 -53.939,-51.78 0,-29.99 23.199,-53.22 53.189,-53.22 l 0,0 z m 2.18,98.65 0,0 c 27.98,0 32.85,-24.68 32.85,-45.71 0,-21.08 -11.359,-46.6 -35.309,-46.6 -25.24,0 -32.73,22.5 -32.73,41.81 0,25.82 11.82,50.5 35.189,50.5 l 0,0 z"
       id="path4287" /><path
       style="fill:#211e1f"
       inkscape:connector-curvature="0"
       d="m 1516.252,372.88 c 0.061,-30.34 23.541,-53.81 53.83,-53.85 l 0,0.63 0,0.609 c -29.639,0 -52.58,22.931 -52.609,52.61 0.07,30.66 23.08,51.12 53.361,51.13 30.398,-0.01 53.85,-21.75 53.898,-54.609 -0.029,-30.32 -24.16,-49.091 -54.648,-49.131 l 0,-0.609 0,-0.63 c 30.979,0.02 55.809,19.27 55.869,50.37 -0.029,33.529 -24.131,55.81 -55.119,55.869 -30.842,-0.06 -54.521,-21.04 -54.58,-52.39 l 0,0 z m 20.202,-5.07 0,0 c 0.039,-19.399 7.619,-42.46 33.359,-42.46 24.48,0.061 35.91,26.061 35.949,47.25 -0.039,21.03 -4.988,46.311 -33.488,46.311 l 0,-0.6 0,-0.621 c 27.42,-0.039 32.17,-24.06 32.238,-45.09 0,-20.909 -11.26,-45.939 -34.699,-45.97 -24.74,0.03 -32.061,21.97 -32.109,41.18 0.02,25.69 11.73,49.82 34.57,49.88 l 0,0.621 0,0.6 c -23.941,-0.031 -35.781,-25.13 -35.82,-51.101 l 0,0 z"
       id="path4289" /><path
       style="fill:#211e1f"
       inkscape:connector-curvature="0"
       d="m 1722.508,394.07 0.291,-0.28 0,-54.08 c 0,-11.84 -8.24,-13.56 -12.57,-13.56 l -3.121,0 0,-4.331 c 6.76,0 13.391,0.57 20.15,0.57 5.93,0 11.84,-0.57 17.76,-0.57 l 0,4.331 -2.18,0 c -6.041,0 -12.83,1.149 -12.83,18.31 l 0,65.64 c 0,5.041 0.141,10.08 0.871,14.551 l -5.471,0 -74.281,-82.79 0,59.43 c 0,12.55 2.441,16.86 13.541,16.86 l 2.469,0 0,4.35 c -6.209,0 -12.398,-0.57 -18.6,-0.57 -6.49,0 -13.139,0.57 -19.629,0.57 l 0,-4.35 2.029,0 c 9.971,0 12.961,-6.761 12.961,-18.29 l 0,-60.75 c 0,-8.07 -6.602,-12.96 -13.111,-12.96 l -1.879,0 0,-4.33 c 5.479,0 11.109,0.569 16.58,0.569 4.33,0 8.5,-0.569 12.84,-0.569 l 64.18,72.249 0,0 z"
       id="path4291" /><path
       style="fill:#211e1f"
       inkscape:connector-curvature="0"
       d="m 1730.889,425.27 -5.969,-0.21 -73.17,-81.57 0,57.801 c 0.158,12.54 2.068,16.09 12.898,16.22 l 3.121,0 0,0.65 0,4.95 -0.631,0 c -6.25,0 -12.439,-0.58 -18.6,-0.58 -6.471,0 -13.09,0.58 -19.641,0.58 l -0.6,0 0,-0.62 0,-4.98 0.6,0 2.041,0 c 9.51,-0.029 12.24,-6.149 12.359,-17.65 l 0,-60.75 c -0.02,-7.68 -6.311,-12.34 -12.51,-12.35 l -2.49,0 0,-0.61 0,-4.95 0.6,0 c 5.531,0 11.15,0.551 16.59,0.551 4.281,0 8.441,-0.551 13.32,-0.34 l 63.361,71.35 0,-53.04 c -0.041,-11.479 -7.721,-12.86 -11.941,-12.96 l -3.789,0 0,-0.609 0,-4.95 0.65,0 c 6.789,0 13.439,0.55 20.148,0.55 5.92,0 11.801,-0.55 17.781,-0.55 l 0.619,0 0,0.619 0,4.94 -0.619,0 -2.182,0 c -5.93,0.17 -12.068,0.71 -12.189,17.7 l 0,65.63 c 0,5.04 0.109,10.069 0.811,14.479 l 0.119,0.7 -0.687,0 0,-0.001 z m -5.478,-1.26 0,0 4.719,0 c -0.629,-4.33 -0.74,-9.13 -0.74,-13.92 l 0,-65.63 c 0,-17.34 7.271,-18.91 13.451,-18.96 l 1.559,0 0,-3.05 c -5.689,0.04 -11.389,0.56 -17.158,0.56 -6.561,0 -13.012,-0.52 -19.541,-0.56 l 0,3.05 2.529,0 c 4.471,0.05 13.17,2.021 13.17,14.22 l -0.158,54.5 -0.271,0.301 -0.459,0.459 -64.18,-72.529 c -4.25,0 -8.461,0.56 -12.84,0.56 -5.311,0 -10.721,-0.52 -15.971,-0.56 l 0,3.05 1.27,0 c 6.771,0.05 13.74,5.16 13.74,13.61 l 0,60.75 c 0,11.53 -3.219,18.91 -13.59,18.95 l -1.42,-0.011 0,3.051 c 6.26,-0.03 12.68,-0.55 19.02,-0.55 6.01,0 11.98,0.52 17.971,0.55 l 0,-3.04 -1.861,0 c -11.318,-0.011 -14.148,-4.98 -14.148,-17.521 l 0,-61.05 74.908,83.77 0,0 z m -2.901,-29.95 0,0 0.459,-0.41 -0.459,0.41 z m -0.34,-0.27 0,0 0,-0.051 -0.121,-0.109 0.121,0.16 z"
       id="path4293" /><path
       style="fill:#211e1f"
       inkscape:connector-curvature="0"
       d="m 1768.192,401.87 c -1.41,4.89 -3.16,8.67 -3.16,11.24 0,4.34 6.07,5.04 10.801,5.04 l 1.609,0 0,4.35 c -5.77,-0.311 -11.689,-0.57 -17.459,-0.57 -5.211,0 -10.381,0.261 -15.551,0.57 l 0,-4.35 0.82,0 c 5.65,0 10.43,-3.311 12.561,-9.38 l 23.1,-66.181 c 1.859,-5.34 4.469,-12.55 5.311,-17.899 4.619,-1.57 10.379,-4.45 13.148,-6.19 0.41,-0.149 0.701,-0.3 1.141,-0.3 0.43,0 0.699,0 0.99,0.45 0.439,1.14 0.891,2.45 1.32,3.6 l 26.52,75.44 c 1.73,5.04 3.451,10.37 5.35,14.71 1.73,4.04 4.77,5.75 9.51,5.75 l 0.881,0 0,4.35 c -6.5,-0.31 -12.99,-0.569 -19.92,-0.569 -7.051,0 -14.27,0.26 -21.631,0.569 l 0,-4.35 1.602,0 c 3.289,0 8.949,-0.56 8.949,-4.17 0,-1.87 -1.311,-5.76 -2.92,-10.39 l -5.6,-16.73 -32.74,0 -4.632,15.01 0,0 z m 21.08,-63.9 0,0 -0.289,0 -13.43,40.82 26.988,0 -13.269,-40.82 z"
       id="path4295" /><path
       style="fill:#211e1f"
       inkscape:connector-curvature="0"
       d="m 1845.022,423.111 c -6.49,-0.26 -12.969,-0.58 -19.859,-0.58 -7.031,0 -14.25,0.32 -21.611,0.58 l -0.639,0.04 0,-0.66 0,-4.96 0.619,0 1.57,0 c 3.359,0 8.33,-0.78 8.34,-3.55 0.029,-1.641 -1.27,-5.57 -2.879,-10.19 l -5.48,-16.31 -31.83,0 -4.461,14.569 c -1.439,4.94 -3.16,8.73 -3.129,11.061 0,3.54 5.398,4.42 10.17,4.42 l 2.199,0 0,0.62 0,5 -0.639,-0.04 c -5.771,-0.26 -11.672,-0.58 -17.41,-0.58 -5.17,0 -10.352,0.32 -15.551,0.58 l -0.631,0.04 0,-0.66 0,-4.96 0.631,0 0.82,0 c 5.379,-0.021 9.879,-3.11 11.98,-8.96 l 23.08,-66.19 c 1.84,-5.35 4.439,-12.54 5.719,-18.27 4.531,-1.57 10.32,-4.45 13.121,-6.211 0.379,-0.13 0.77,-0.3 1.359,-0.3 0.381,-0.04 1.119,0.05 1.58,0.84 0.43,1.131 0.85,2.44 1.33,3.61 l 26.52,75.431 c 1.721,5.06 3.451,10.39 5.32,14.68 1.689,3.82 4.32,5.33 8.92,5.37 l 1.5,0 0,0.62 0,5 -0.659,-0.04 0,0 z m -40.869,-1.271 0,0 c 7.129,-0.27 14.15,-0.55 21.01,-0.55 6.709,0 13,0.28 19.279,0.53 l -0.02,-3.011 -0.24,0 c -4.881,0.011 -8.289,-1.909 -10.08,-6.159 -1.9,-4.38 -3.619,-9.73 -5.34,-14.761 l -26.541,-75.439 c -0.43,-1.15 -0.869,-2.46 -1.219,-3.44 -0.121,-0.18 -0.109,-0.18 -0.221,-0.18 l -0.27,0 c -0.299,0 -0.461,0.1 -0.811,0.2 -2.809,1.77 -8.59,4.649 -12.859,5.76 -0.891,5.46 -3.51,12.65 -5.369,18 l -23.09,66.2 c -2.191,6.26 -7.23,9.83 -13.131,9.819 l -0.211,0 0,3.011 c 4.961,-0.25 9.92,-0.53 14.941,-0.53 5.59,0 11.279,0.28 16.83,0.53 l 0,-3.011 -0.98,0 c -4.689,-0.06 -11.27,-0.569 -11.439,-5.699 0.029,-2.86 1.818,-6.53 3.209,-11.42 l 0.59,0.189 -0.59,-0.21 4.75,-15.42 33.631,0 5.779,17.14 c 1.59,4.641 2.9,8.471 2.9,10.591 -0.211,4.43 -6.26,4.739 -9.561,4.829 l -0.949,0 0,3.031 0,0 z m -29.461,-42.439 0,0 13.83,-42.061 0.439,0 0.311,0 0,0.63 -0.15,0.03 0.15,-0.03 0,-0.63 0.451,0 13.629,42.061 -28.66,0 z m 1.73,-1.241 0,0 25.221,0 -12.541,-38.63 -12.68,38.63 0,0 z m 12.25,-40.009 0,0 0.289,-0.11 -0.289,0.11 z"
       id="path4297" /><path
       style="fill:#211e1f"
       inkscape:connector-curvature="0"
       d="m 1881.42,408.36 c 0,5.771 4,7.49 8.621,8.08 5.91,0.44 12.4,0.44 19.061,-0.29 6.039,-0.729 11.24,-4.189 13.818,-7.79 2.301,-3.18 3.602,-7.22 4.471,-10.39 l 4.18,0 c -1.58,8.22 -3.6,16.32 -5.34,24.53 -12.66,0 -25.379,-0.57 -38.051,-0.57 -12.709,0 -25.379,0.57 -38.068,0.57 l 0,-4.351 1.979,0 c 5.221,0 10.861,-0.699 10.861,-9.649 l 0,-74.12 c 0,-7.521 -5.641,-8.23 -10.861,-8.23 l -1.979,0 0,-4.33 c 7.619,0 15.129,0.57 22.76,0.57 7.379,0 14.58,-0.57 21.939,-0.57 l 0,4.33 -3.631,0 c -5.459,0 -9.76,0.16 -9.76,7.78 l 0,74.43 0,0 z"
       id="path4299" /><path
       style="fill:#211e1f"
       inkscape:connector-curvature="0"
       d="m 1926.231,423.111 c -12.709,0 -25.398,-0.58 -38.049,-0.58 -12.701,0 -25.391,0.58 -38.1,0.58 l -0.611,0 0,-0.62 0,-4.96 0.611,0 2.01,0 c 5.23,-0.12 10.17,-0.48 10.23,-9.03 l 0,-74.149 c -0.061,-7.01 -4.971,-7.49 -10.23,-7.591 l -2.621,0 0,-0.609 0,-4.95 0.611,0 c 7.67,0 15.18,0.55 22.799,0.55 7.32,0 14.521,-0.55 21.93,-0.55 l 0.592,0 0,0.62 0,4.939 -0.592,0 -3.619,0 c -5.59,0.16 -9.07,-0.1 -9.18,7.171 l 0,74.43 c 0.039,5.37 3.561,6.82 8.061,7.45 2.549,0.18 5.219,0.29 8,0.29 3.529,0 7.199,-0.17 10.92,-0.57 5.879,-0.689 10.939,-4.08 13.42,-7.52 2.219,-3.08 3.5,-7.04 4.359,-10.19 l 0.131,-0.479 0.479,0 4.951,0 -0.131,0.76 c -1.629,8.25 -3.609,16.31 -5.359,24.52 l -0.119,0.49 -0.49,0 0,0 z m -0.52,-1.26 0,0 c 1.67,-7.82 3.561,-15.471 5.111,-23.271 l -2.961,0 c -0.9,3.14 -2.18,7.01 -4.449,10.16 -2.691,3.74 -8.031,7.26 -14.281,8.03 -3.779,0.39 -7.52,0.59 -11.059,0.59 -2.791,0 -5.5,-0.13 -8.111,-0.311 -4.689,-0.52 -9.24,-2.52 -9.219,-8.689 l 0,-74.43 c 0,-8.01 5.068,-8.42 10.449,-8.42 l 2.98,0 0,-3.06 c -7.109,0.04 -14.109,0.569 -21.291,0.569 -7.469,0 -14.77,-0.529 -22.17,-0.569 l 0,3.06 1.381,0 c 5.15,0 11.449,0.9 11.449,8.84 l 0,74.15 c 0,9.33 -6.27,10.3 -11.449,10.3 l -1.381,0 0,3.05 c 12.471,-0.01 24.941,-0.55 37.471,-0.55 12.53,0 25.052,0.54 37.53,0.551 l 0,0 z"
       id="path4301" /><path
       style="fill:#211e1f"
       inkscape:connector-curvature="0"
       d="m 1929.821,317.72 c 8.689,0 15.18,6.68 15.18,15.24 0,8.52 -6.49,15.14 -15.18,15.14 -8.691,0 -15.191,-6.62 -15.191,-15.14 0,-8.559 6.499,-15.24 15.191,-15.24 z m 0,27.55 0,0 c 6.789,0 12.01,-5.8 12.01,-12.31 0,-6.55 -5.141,-12.4 -12.01,-12.4 -6.83,0 -12.051,5.851 -12.051,12.4 0,6.51 5.221,12.31 12.051,12.31 z m -7.561,-4.31 0,0 0,-0.75 c 1.869,-0.26 2.209,-0.2 2.209,-1.36 l 0,-11.24 c 0,-1.579 -0.17,-2.119 -2.139,-2.04 l 0,-0.77 7.77,0 c 2.68,0 5.129,1.27 5.129,4.03 0,2.26 -1.5,3.93 -3.59,4.58 l 2.49,3.479 c 1.17,1.58 2.48,3.061 3.35,3.58 l 0,0.49 -2.959,0 c -1.42,0 -2.66,-2.99 -5.461,-7 l -1.68,0 0,5.05 c 0,1 0.35,0.94 2.221,1.2 l 0,0.75 -7.34,0 0,10e-4 z m 5.119,-8 0,0 1.791,0 c 1.959,0 2.879,-1.49 2.879,-3.88 0,-2.42 -1.42,-3.271 -2.979,-3.271 l -1.691,0 0,7.151 z"
       id="path4303" /></g></svg>